<?xml version="1.0" encoding="UTF-8"?><svg id="Layer_2" xmlns="http://www.w3.org/2000/svg" viewBox="0 0 57.76 58"><defs><style>.cls-1{fill:#041e41;}.cls-1,.cls-2{stroke-width:0px;}.cls-2{fill:#026937;}</style></defs><g id="Layer_1-2"><path class="cls-1" d="M28.88,0C12.93,0,0,12.94,0,28.91c0,4.76,1.15,9.24,3.18,13.2-.75-2.53-1.16-5.21-1.16-7.98C2.02,18.67,14.54,6.14,29.98,6.14c3.09,0,6.06.5,8.84,1.43-.24,0-.48-.02-.73-.02-11.31,0-20.48,9.18-20.48,20.5,0,3.11.7,6.06,1.93,8.7,2.18-8.98,10.26-15.65,19.9-15.65,3.17,0,6.17.72,8.85,2.01-1.16-.42-2.41-.65-3.72-.65-5.99,0-10.86,4.87-10.86,10.87s4.86,10.87,10.86,10.87c5.56,0,10.74-3.77,12.74-10.23.29-1.64.44-3.33.44-5.06C57.76,12.94,44.83,0,28.88,0Z"/><path class="cls-2" d="M27.06,39.48c-.25,1.31-.39,2.65-.39,4.03,0,4.99,1.73,9.57,4.62,13.18-10.17-3.16-17.94-11.75-19.94-22.39-.33,1.75-.5,3.56-.5,5.4,0,5.35,1.44,10.35,3.95,14.66.16.09.33.18.49.26.09.05.18.1.28.15.21.11.43.22.64.32.06.03.11.06.16.08,3.79,1.81,8.02,2.82,12.5,2.82.26,0,.52,0,.78-.01.06,0,.11,0,.17,0,.23,0,.46-.02.69-.03.02,0,.05,0,.07,0,.55-.03,1.1-.08,1.64-.14.73-.08,1.45-.2,2.16-.33,6.38-1.23,12.01-4.54,16.17-9.2-2.36,1.3-5.07,2.03-7.95,2.03-7.13,0-13.21-4.5-15.55-10.82Z"/></g></svg>