<?xml version="1.0" encoding="UTF-8"?>
<svg id="Layer_1" data-name="Layer 1" xmlns="http://www.w3.org/2000/svg" xmlns:xlink="http://www.w3.org/1999/xlink" version="1.1" viewBox="0 0 332 58">
  <defs>
    <style>
      .cls-1 {
        fill: #041e41;
      }

      .cls-1, .cls-2, .cls-3 {
        stroke-width: 0px;
      }

      .cls-2 {
        fill: #026937;
      }

      .cls-4 {
        clip-path: url(#clippath);
      }

      .cls-3 {
        fill: none;
      }
    </style>
    <clipPath id="clippath">
      <rect class="cls-3" width="332" height="58"/>
    </clipPath>
  </defs>
  <g class="cls-4">
    <g>
      <path class="cls-1" d="M99.5,32.2l-3.2.6-4.1-22.4h0c-.5,1.1-1.7,3.6-3.4,7.5-1.8,3.9-3.5,7.8-5.2,11.8h-2.7c-1.6-3.6-3.3-7.6-5.2-11.8-1.9-4.2-3-6.7-3.4-7.4h0c0,.3-.6,2.9-1.6,7.6-1,4.7-1.9,9.6-2.8,14.7l-3.1-.6c1.3-5.7,2.6-11.4,3.7-17,1.2-5.6,1.8-8.7,1.9-9.1l3.2-.5c.1.3,1.1,2.4,2.8,6.4,1.7,4,3.8,8.5,6.2,13.7h.1c1.8-4.1,3.7-8.4,5.7-13,2-4.6,3.1-7,3.1-7.1l3,.2c0,.3.6,3.2,1.6,8.7,1.1,5.5,2.2,11.4,3.5,17.6Z"/>
      <path class="cls-1" d="M105.9,8.6h-3.5v-3.4h3.5v3.4ZM105.7,32.6h-3.1c0-.2,0-1.5,0-3.9,0-2.4,0-4.4,0-5.9s0-2.9,0-4.5c0-1.6,0-3.6,0-5.8h3.1c0,1.9,0,3.7,0,5.4,0,1.7,0,3.1,0,4.4,0,3.1,0,5.6,0,7.4,0,1.9,0,2.8,0,2.9Z"/>
      <path class="cls-1" d="M126.4,32.6h-3.1c0-.4,0-1.6,0-3.7,0-2.1,0-3.4,0-3.9s0-1.7,0-3.1c0-1.3,0-2.3,0-3,0-1.5-.3-2.6-.9-3.3-.5-.7-1.5-1-2.8-1s-1.8.2-3,.7c-1.2.5-2.4,1.1-3.6,1.8,0,.1,0,.9,0,2.4,0,1.4,0,2.7,0,3.9s0,3.4,0,5.6c0,2.2,0,3.3,0,3.4h-3.1c0,0,0-.9,0-2.4,0-1.5,0-3.8,0-6.8s0-3,0-4.9c0-1.9,0-3.9,0-6h3.1v2.3h0c1.9-1,3.4-1.8,4.6-2.2,1.2-.4,2.3-.6,3.1-.6,1.7,0,3.1.5,4.1,1.6,1,1.1,1.5,2.5,1.5,4.4s0,3.1,0,4.3c0,1.2,0,2.2,0,3,0,1.2,0,2.7,0,4.5,0,1.8,0,2.8,0,2.9Z"/>
      <path class="cls-1" d="M146.8,32.6h-3.1c0-.4,0-1.6,0-3.7,0-2.1,0-3.4,0-3.9s0-1.7,0-3.1c0-1.3,0-2.3,0-3,0-1.5-.3-2.6-.9-3.3-.5-.7-1.5-1-2.8-1s-1.8.2-3,.7c-1.2.5-2.4,1.1-3.6,1.8,0,.1,0,.9,0,2.4,0,1.4,0,2.7,0,3.9s0,3.4,0,5.6c0,2.2,0,3.3,0,3.4h-3.1c0,0,0-.9,0-2.4,0-1.5,0-3.8,0-6.8s0-3,0-4.9c0-1.9,0-3.9,0-6h3.1v2.3h0c1.9-1,3.4-1.8,4.6-2.2,1.2-.4,2.3-.6,3.1-.6,1.7,0,3.1.5,4.1,1.6,1,1.1,1.5,2.5,1.5,4.4s0,3.1,0,4.3c0,1.2,0,2.2,0,3,0,1.2,0,2.7,0,4.5,0,1.8,0,2.8,0,2.9Z"/>
      <path class="cls-1" d="M166.9,21.8h-14.4c0,1.4.3,2.7.9,3.9.6,1.2,1.5,2.1,2.7,2.9.8.5,1.6.9,2.6,1.1,1,.2,2.2.4,3.5.4s1.4,0,2.1,0c.6,0,1,0,1.2,0l-.4,2.6c-.1,0-.5,0-1.1,0-.6,0-1.3,0-2.1,0-2.1,0-4-.3-5.5-.8-1.6-.6-2.9-1.3-3.9-2.3-.9-.8-1.6-1.8-2.2-3.1-.6-1.3-.9-2.7-.9-4.2s.2-2.9.7-4.1c.5-1.2,1.1-2.4,2-3.4.8-.9,1.8-1.6,2.9-2.1,1.2-.5,2.4-.7,3.6-.7s2.3.2,3.3.6c1,.4,1.8.9,2.5,1.7.8.9,1.4,1.9,1.8,3.1.4,1.2.6,2.7.6,4.5ZM163.8,19.5c-.2-1.7-.8-2.9-1.7-3.9-.9-.9-2.1-1.4-3.6-1.4s-2.7.5-3.7,1.4c-1,1-1.7,2.2-2.1,3.9h11Z"/>
      <path class="cls-1" d="M181.7,26.8c0,1-.2,1.9-.7,2.6-.5.8-1.1,1.4-1.9,1.9-.8.5-1.8.9-2.9,1.1-1.1.3-2.3.4-3.7.4s-1.3,0-2,0c-.7,0-1.1-.1-1.2-.1v-2.6s.5,0,1.3.1c.8,0,1.6,0,2.4,0s1.1,0,1.8-.1c.7,0,1.3-.2,1.8-.4.7-.3,1.2-.6,1.5-1.1.3-.4.5-.9.5-1.5s-.1-1-.4-1.3c-.3-.3-.7-.7-1.2-1-.5-.4-1.3-.7-2.2-1.1-.9-.4-1.7-.8-2.3-1.2-.9-.5-1.6-1.2-2-1.9-.5-.7-.7-1.6-.7-2.6s.3-1.9.8-2.6c.5-.8,1.3-1.4,2.2-1.9.8-.4,1.6-.7,2.6-.8.9-.1,1.9-.2,2.8-.2s1.5,0,2,0c.5,0,.8,0,.9,0l.2,2.6c0,0-.5,0-1.2,0-.7,0-1.5,0-2.4,0s-1.2,0-1.7.2c-.5.1-1,.3-1.4.5-.6.3-1,.7-1.2,1.1-.2.4-.4.8-.4,1.2s.2,1,.5,1.4c.3.4.7.7,1.2,1,.5.3,1.3.7,2.2,1.1.9.4,1.6.8,2,1.1.9.6,1.6,1.2,2.1,2,.5.7.7,1.6.7,2.5Z"/>
      <path class="cls-1" d="M203.1,22.5c0,1.5-.3,3-.8,4.4-.6,1.4-1.3,2.6-2.4,3.6-.9.8-1.8,1.5-2.9,1.9-1.1.4-2.3.7-3.6.7s-2.5-.2-3.6-.6c-1.1-.4-2.1-1.1-3-1.9-1-1-1.8-2.2-2.3-3.6-.6-1.4-.8-2.9-.8-4.5s.2-2.9.7-4.2c.5-1.3,1.2-2.4,2.2-3.5.9-.9,1.9-1.6,3.1-2.1,1.2-.5,2.4-.7,3.7-.7s2.6.2,3.7.7c1.1.5,2.1,1.1,3,2.1,1,1,1.8,2.2,2.2,3.5.5,1.3.7,2.7.7,4.3ZM199.9,22.6c0-1.2-.2-2.5-.6-3.6-.4-1.2-1-2.2-1.9-3-.5-.5-1.1-.9-1.8-1.2-.7-.3-1.4-.4-2.2-.4s-1.7.1-2.4.4c-.7.3-1.3.7-1.9,1.4-.7.7-1.3,1.6-1.7,2.7-.4,1.1-.6,2.3-.6,3.5s.2,2.6.6,3.7c.4,1.1,1.1,2.1,2,2.9.5.5,1.1.8,1.8,1.1.7.2,1.4.4,2.2.4s1.6-.1,2.3-.4c.7-.3,1.4-.7,1.9-1.3.8-.8,1.3-1.7,1.7-2.8.4-1.1.6-2.2.6-3.4Z"/>
      <path class="cls-1" d="M217.5,30.1l-.4,2.5c0,0-.3,0-.7,0-.4,0-.7,0-.9,0-2.7,0-4.8-.6-6.2-1.7-1.4-1.1-2.1-2.9-2.1-5.2s0-3.1,0-4.7c0-1.7,0-3.8,0-6.3h-3.3v-2.3h3.5v-4.7h2.9v4.7h7.2v2.3h-7.2c0,.3,0,1.1,0,2.5,0,1.4,0,2.4,0,3.1v4.9c0,1.7.5,3,1.4,3.7.9.8,2.4,1.1,4.3,1.1h1.5Z"/>
      <path class="cls-1" d="M235,21.2c0,3.3,0,6,0,8,0,2.1,0,3.2,0,3.3-.1,0-.8,0-1.8.2-1.1.1-2.5.2-4.3.2s-2.2-.1-3.3-.3c-1.1-.2-2.1-.5-2.8-.9-1.1-.5-1.9-1.2-2.6-2-.7-.9-1-1.9-1-3.1s.4-2.4,1.2-3.3c.8-.9,1.9-1.7,3.2-2.2.9-.4,2-.7,3.5-1,1.4-.3,3.1-.5,4.9-.6,0-1-.3-1.9-.8-2.5-.4-.7-1.1-1.2-1.9-1.5-.6-.2-1.2-.4-2-.5-.7,0-1.6-.1-2.5-.1s-1.1,0-1.5,0c-.4,0-1,0-1.7,0l.3-2.6c.2,0,.6,0,1.2,0,.6,0,1.4,0,2.4,0,1.6,0,3,.2,4.2.5,1.2.3,2.2.9,3.1,1.6.8.7,1.3,1.5,1.7,2.6.4,1,.6,2.5.6,4.4ZM232,26v-1.7c0-.7,0-1.5,0-2.4-.6,0-1.6.1-3.1.3-1.5.2-2.7.5-3.7.9-.7.3-1.4.7-2,1.3-.6.6-.9,1.3-.9,2.1s.2,1.6.7,2.2c.5.6,1.2,1,2,1.3.7.2,1.4.4,2.2.5.8.1,1.6.2,2.5.2s.6,0,1,0c.4,0,.8,0,1.2,0v-4.5Z"/>
      <path class="cls-1" d="M265.3,25.1c0,1.4-.3,2.6-1,3.6-.6,1-1.5,1.9-2.6,2.5-1,.6-2.1,1-3.4,1.3-1.3.3-2.7.4-4.3.4s-1.7,0-2.6,0c-.9,0-1.4,0-1.6,0l-.2-2.8c.2,0,.7,0,1.5.1.8,0,1.8.1,3,.1s1.6,0,2.7-.3c1.1-.2,2-.4,2.6-.7.8-.4,1.4-.9,1.8-1.4.4-.5.6-1.2.6-2.1s-.2-1.6-.6-2.3c-.4-.6-1.1-1.2-2.1-1.8-.6-.4-1.4-.8-2.4-1.3-1-.5-1.9-.9-2.7-1.4-1.3-.8-2.3-1.7-2.9-2.7-.6-1-.9-2.1-.9-3.3s.3-2.3.8-3.2c.5-.9,1.2-1.7,2-2.3.9-.6,1.9-1.1,3.1-1.4,1.2-.3,2.6-.5,4.1-.5s1.7,0,2.5,0c.8,0,1.3,0,1.4,0l.3,2.8c-.1,0-.6,0-1.5-.1-.8,0-1.9-.1-3.1-.1s-1.5,0-2.3.3c-.8.2-1.5.4-2.1.8-.5.3-1,.7-1.4,1.3-.4.5-.6,1.2-.6,1.9s.2,1.3.6,1.9c.4.6,1.1,1.2,2.2,1.9.5.3,1.3.7,2.2,1.1.9.4,1.8.9,2.6,1.4,1.3.8,2.3,1.7,3,2.7.7,1,1,2.2,1,3.5Z"/>
      <path class="cls-1" d="M280.5,30.1l-.4,2.5c0,0-.3,0-.7,0-.4,0-.7,0-.9,0-2.7,0-4.8-.6-6.2-1.7-1.4-1.1-2.1-2.9-2.1-5.2s0-3.1,0-4.7c0-1.7,0-3.8,0-6.3h-3.3v-2.3h3.5v-4.7h2.9v4.7h7.2v2.3h-7.2c0,.3,0,1.1,0,2.5,0,1.4,0,2.4,0,3.1v4.9c0,1.7.5,3,1.4,3.7.9.8,2.4,1.1,4.3,1.1h1.5Z"/>
      <path class="cls-1" d="M298,21.2c0,3.3,0,6,0,8,0,2.1,0,3.2,0,3.3-.1,0-.8,0-1.8.2-1.1.1-2.5.2-4.3.2s-2.2-.1-3.3-.3c-1.1-.2-2-.5-2.8-.9-1.1-.5-1.9-1.2-2.6-2-.7-.9-1-1.9-1-3.1s.4-2.4,1.2-3.3c.8-.9,1.9-1.7,3.2-2.2.9-.4,2-.7,3.5-1,1.4-.3,3.1-.5,4.9-.6,0-1-.3-1.9-.8-2.5-.4-.7-1.1-1.2-1.9-1.5-.6-.2-1.2-.4-2-.5-.7,0-1.6-.1-2.5-.1s-1.1,0-1.5,0c-.4,0-1,0-1.7,0l.3-2.6c.2,0,.6,0,1.2,0,.6,0,1.4,0,2.4,0,1.6,0,3,.2,4.2.5,1.2.3,2.2.9,3.1,1.6.8.7,1.3,1.5,1.7,2.6.4,1,.6,2.5.6,4.4ZM295,26v-1.7c0-.7,0-1.5,0-2.4-.6,0-1.6.1-3.1.3-1.5.2-2.7.5-3.7.9-.7.3-1.4.7-2,1.3-.6.6-.9,1.3-.9,2.1s.2,1.6.7,2.2c.5.6,1.2,1,2,1.3.6.2,1.4.4,2.2.5.8.1,1.6.2,2.5.2s.6,0,1,0c.4,0,.8,0,1.2,0v-1.3c0-.8,0-1.8,0-3.2Z"/>
      <path class="cls-1" d="M312.8,30.1l-.4,2.5c0,0-.3,0-.7,0-.4,0-.7,0-.9,0-2.7,0-4.8-.6-6.2-1.7-1.4-1.1-2.1-2.9-2.1-5.2s0-3.1,0-4.7c0-1.7,0-3.8,0-6.3h-3.3v-2.3h3.5v-4.7h2.9v4.7h7.2v2.3h-7.2c0,.3,0,1.1,0,2.5,0,1.4,0,2.4,0,3.1v4.9c0,1.7.5,3,1.4,3.7.9.8,2.4,1.1,4.3,1.1h1.5Z"/>
      <path class="cls-1" d="M332,21.8h-14.4c0,1.4.3,2.7.9,3.9.6,1.2,1.5,2.1,2.7,2.9.8.5,1.6.9,2.6,1.1,1,.2,2.2.4,3.5.4s1.4,0,2.1,0c.6,0,1,0,1.2,0l-.4,2.6c-.1,0-.5,0-1.1,0-.6,0-1.3,0-2.1,0-2.1,0-4-.3-5.5-.8-1.6-.6-2.9-1.3-3.9-2.3-.9-.8-1.6-1.8-2.2-3.1-.6-1.3-.9-2.7-.9-4.2s.2-2.9.7-4.1c.5-1.2,1.1-2.4,2-3.4.8-.9,1.8-1.6,2.9-2.1,1.2-.5,2.4-.7,3.6-.7s2.3.2,3.3.6c1,.4,1.8.9,2.5,1.7.8.9,1.4,1.9,1.8,3.1.4,1.2.6,2.7.6,4.5ZM328.9,19.5c-.2-1.7-.8-2.9-1.7-3.9-.9-.9-2.1-1.4-3.6-1.4s-2.7.5-3.7,1.4c-1,1-1.7,2.2-2.1,3.9h11Z"/>
      <path class="cls-1" d="M73.3,50.4c0,0,0,.2,0,.5,0,.3,0,.5,0,.9h-.3c-1.5,0-2.9-.2-4.1-.6-1.2-.4-2.2-1-2.9-1.7-.5-.5-1-1.1-1.3-1.8-.3-.7-.5-1.5-.5-2.4s.2-1.6.5-2.2c.3-.7.7-1.3,1.2-1.8.7-.7,1.7-1.3,2.9-1.7,1.2-.4,2.5-.6,3.9-.6h.4c0,.1,0,.3,0,.5,0,.2,0,.5,0,.8h-.3c-.8,0-1.6,0-2.5.3-.8.2-1.6.4-2.2.8-.8.5-1.4,1-1.8,1.7-.4.7-.6,1.5-.6,2.3s.2,1.6.6,2.3c.4.7,1,1.3,1.8,1.8.7.4,1.4.7,2.3.9.8.2,1.7.3,2.5.3h.2c0,0,.2,0,.3,0Z"/>
      <path class="cls-1" d="M83.4,46.8c0,.7-.1,1.4-.4,2.1-.3.7-.6,1.2-1.1,1.7-.4.4-.9.7-1.4.9-.5.2-1.1.3-1.7.3s-1.2-.1-1.7-.3c-.5-.2-1-.5-1.4-.9-.5-.5-.8-1-1.1-1.7-.3-.7-.4-1.4-.4-2.1s.1-1.4.3-2c.2-.6.6-1.2,1-1.6.4-.4.9-.8,1.5-1,.6-.2,1.2-.4,1.8-.4s1.2.1,1.8.3c.5.2,1,.5,1.4,1,.5.5.8,1.1,1.1,1.7.2.6.3,1.3.3,2ZM81.8,46.8c0-.6,0-1.2-.3-1.7-.2-.6-.5-1-.9-1.4-.2-.2-.5-.4-.9-.6-.3-.1-.7-.2-1.1-.2s-.8,0-1.1.2c-.3.1-.6.4-.9.7-.3.3-.6.8-.8,1.3-.2.5-.3,1.1-.3,1.6s0,1.2.3,1.8c.2.5.5,1,.9,1.4.2.2.5.4.9.5.3.1.7.2,1,.2s.8,0,1.1-.2c.3-.1.6-.3.9-.6.4-.4.6-.8.8-1.3.2-.5.3-1.1.3-1.6Z"/>
      <path class="cls-1" d="M98.9,51.5h-1.5c0,0,0-.5,0-1.3,0-.8,0-1.6,0-2.3s0-.7,0-1.4c0-.6,0-1.1,0-1.4,0-.8-.2-1.3-.5-1.6-.3-.3-.7-.4-1.3-.4s-.8,0-1.2.3c-.5.2-1,.4-1.6.8,0,0,0,0,0,.2,0,0,0,.2,0,.4,0,.5,0,1,0,1.5,0,.5,0,1,0,1.5,0,1,0,1.9,0,2.6,0,.7,0,1.1,0,1.2h-1.5c0,0,0-.5,0-1.1,0-.7,0-1.5,0-2.5s0-.8,0-1.4c0-.6,0-1.1,0-1.4,0-.3,0-.5,0-.8,0-.3-.1-.5-.2-.6-.1-.2-.3-.3-.5-.4-.2,0-.5-.1-.9-.1s-.8.1-1.2.3c-.5.2-1,.5-1.6.9,0,.1,0,.5,0,1.2,0,.7,0,1.3,0,1.7,0,.7,0,1.6,0,2.7,0,1,0,1.6,0,1.7h-1.5c0,0,0-.4,0-1.1,0-.7,0-1.8,0-3.4s0-1.2,0-2.1c0-.9,0-1.9,0-3h1.5v1.1h0c.4-.3,1-.6,1.6-.9.6-.3,1.2-.5,1.7-.5s1.1.1,1.5.4c.4.3.7.6.9,1h0c.7-.5,1.4-.8,2-1,.6-.2,1.1-.4,1.6-.4.9,0,1.5.3,2,.8.5.5.7,1.2.7,2.1s0,1.2,0,1.7c0,.5,0,.9,0,1.5,0,1.1,0,2,0,2.7,0,.7,0,1.1,0,1.2Z"/>
      <path class="cls-1" d="M115.2,51.5h-1.5c0,0,0-.5,0-1.3,0-.8,0-1.6,0-2.3s0-.7,0-1.4c0-.6,0-1.1,0-1.4,0-.8-.2-1.3-.4-1.6-.3-.3-.7-.4-1.3-.4s-.8,0-1.2.3c-.5.2-1,.4-1.6.8,0,0,0,0,0,.2,0,0,0,.2,0,.4,0,.5,0,1,0,1.5,0,.5,0,1,0,1.5,0,1,0,1.9,0,2.6,0,.7,0,1.1,0,1.2h-1.5c0,0,0-.5,0-1.1,0-.7,0-1.5,0-2.5s0-.8,0-1.4c0-.6,0-1.1,0-1.4,0-.3,0-.5,0-.8,0-.3-.1-.5-.2-.6-.1-.2-.3-.3-.5-.4-.2,0-.5-.1-.9-.1s-.8.1-1.2.3c-.5.2-1,.5-1.6.9,0,.1,0,.5,0,1.2,0,.7,0,1.3,0,1.7,0,.7,0,1.6,0,2.7,0,1,0,1.6,0,1.7h-1.5c0,0,0-.4,0-1.1,0-.7,0-1.8,0-3.4s0-1.2,0-2.1c0-.9,0-1.9,0-3h1.5v1.1h0c.4-.3,1-.6,1.6-.9.6-.3,1.2-.5,1.7-.5s1.1.1,1.5.4c.4.3.7.6.9,1h0c.7-.5,1.4-.8,2-1,.6-.2,1.1-.4,1.6-.4.9,0,1.5.3,2,.8.5.5.7,1.2.7,2.1s0,1.2,0,1.7c0,.5,0,.9,0,1.5,0,1.1,0,2,0,2.7,0,.7,0,1.1,0,1.2Z"/>
      <path class="cls-1" d="M125,51.5h-1.4v-1.1h0c-.4.3-1,.6-1.7.9-.7.3-1.3.5-1.9.5s-1.5-.3-2-.8c-.5-.5-.7-1.2-.7-2.2s0-1.1,0-1.8c0-.7,0-1.2,0-1.5,0-.6,0-1.3,0-2.1,0-.8,0-1.3,0-1.4h1.5c0,0,0,.5,0,1.4,0,.8,0,1.5,0,2s0,1,0,1.6c0,.7,0,1.1,0,1.4,0,.7.1,1.3.4,1.6.2.3.6.5,1.2.5s1.2-.1,1.8-.4c.7-.3,1.2-.6,1.5-.8,0,0,0-.4,0-1,0-.6,0-1.4,0-2.3s0-1.5,0-2.4c0-.9,0-1.4,0-1.5h1.5c0,.1,0,.5,0,1.1,0,.6,0,1.6,0,3.1s0,1.5,0,2.1c0,.6,0,1.7,0,3.3Z"/>
      <path class="cls-1" d="M135.1,51.5h-1.5c0-.2,0-.8,0-1.7,0-1,0-1.6,0-1.8s0-.8,0-1.5c0-.6,0-1.1,0-1.4,0-.7-.2-1.2-.4-1.6-.3-.3-.7-.5-1.3-.5s-.9.1-1.4.3c-.6.2-1.1.5-1.7.9,0,0,0,.4,0,1.1,0,.7,0,1.3,0,1.9s0,1.6,0,2.6c0,1,0,1.6,0,1.6h-1.5s0-.4,0-1.2c0-.7,0-1.8,0-3.2s0-1.4,0-2.3c0-.9,0-1.8,0-2.8h1.5v1.1h0c.9-.5,1.6-.8,2.2-1,.6-.2,1.1-.3,1.5-.3.8,0,1.5.3,1.9.8.5.5.7,1.2.7,2.1s0,1.5,0,2.1c0,.6,0,1,0,1.4,0,.6,0,1.3,0,2.2,0,.9,0,1.3,0,1.4Z"/>
      <path class="cls-1" d="M138.8,40.2h-1.6v-1.6h1.6v1.6ZM138.8,51.5h-1.5c0-.1,0-.7,0-1.9,0-1.1,0-2.1,0-2.8s0-1.4,0-2.1c0-.8,0-1.7,0-2.7h1.5c0,.9,0,1.8,0,2.5,0,.8,0,1.5,0,2.1,0,1.5,0,2.6,0,3.5,0,.9,0,1.3,0,1.4Z"/>
      <path class="cls-1" d="M146.9,50.4l-.2,1.2s-.2,0-.3,0c-.2,0-.3,0-.4,0-1.3,0-2.3-.3-2.9-.8-.7-.5-1-1.4-1-2.5s0-1.4,0-2.2c0-.8,0-1.8,0-3h-1.6v-1.1h1.7v-2.2h1.4v2.2h3.4v1.1h-3.4c0,.1,0,.5,0,1.2,0,.7,0,1.1,0,1.5v2.3c0,.8.2,1.4.7,1.8.4.4,1.1.5,2,.5h.7Z"/>
      <path class="cls-1" d="M157.3,42.4c-1.2,2.7-2.5,5.6-3.9,8.6-1.4,3-2.1,4.7-2.2,4.9l-1.3-.5,2-4.1c0-.1-.4-1-1.2-2.8-.7-1.7-1.6-3.8-2.7-6.1l1.4-.6c.7,1.8,1.4,3.5,2.1,5.2.7,1.7,1.1,2.6,1.1,2.7h0c0,0,.4-.9,1.1-2.5.7-1.6,1.4-3.4,2.2-5.3l1.3.5Z"/>
      <path class="cls-1" d="M168.4,46.1c0,1.6,0,2.8,0,3.8,0,1,0,1.5,0,1.6,0,0-.4,0-.9,0-.5,0-1.2,0-2,0s-1,0-1.6-.1c-.5,0-1-.2-1.4-.4-.5-.2-.9-.6-1.2-1-.3-.4-.5-.9-.5-1.5s.2-1.1.6-1.6c.4-.4.9-.8,1.5-1.1.4-.2,1-.3,1.6-.5.7-.1,1.5-.2,2.3-.3,0-.5-.2-.9-.4-1.2-.2-.3-.5-.6-.9-.7-.3-.1-.6-.2-.9-.2-.3,0-.7,0-1.2,0s-.5,0-.7,0c-.2,0-.5,0-.8,0l.2-1.2c0,0,.3,0,.6,0,.3,0,.7,0,1.1,0,.7,0,1.4,0,2,.2.6.2,1.1.4,1.5.7.4.3.6.7.8,1.2.2.5.3,1.2.3,2.1ZM167,48.4v-.8c0-.3,0-.7,0-1.1-.3,0-.8,0-1.5.2-.7,0-1.3.2-1.7.4-.4.1-.7.3-.9.6-.3.3-.4.6-.4,1s.1.8.4,1c.2.3.6.5,1,.6.3.1.7.2,1,.2.4,0,.8,0,1.2,0s.3,0,.5,0c.2,0,.4,0,.6,0v-2.1Z"/>
      <path class="cls-1" d="M178.4,51.5h-1.5c0-.2,0-.8,0-1.7,0-1,0-1.6,0-1.8s0-.8,0-1.5c0-.6,0-1.1,0-1.4,0-.7-.2-1.2-.4-1.6-.3-.3-.7-.5-1.3-.5s-.9.1-1.4.3c-.6.2-1.1.5-1.7.9,0,0,0,.4,0,1.1,0,.7,0,1.3,0,1.9s0,1.6,0,2.6c0,1,0,1.6,0,1.6h-1.5s0-.4,0-1.2c0-.7,0-1.8,0-3.2s0-1.4,0-2.3c0-.9,0-1.8,0-2.8h1.5v1.1h0c.9-.5,1.6-.8,2.2-1,.6-.2,1.1-.3,1.5-.3.8,0,1.5.3,1.9.8.5.5.7,1.2.7,2.1s0,1.5,0,2.1c0,.6,0,1,0,1.4,0,.6,0,1.3,0,2.2,0,.9,0,1.3,0,1.4Z"/>
      <path class="cls-1" d="M188.4,51.7s-.2,0-.4,0c-.2,0-.4,0-.5,0-1.2,0-2.1,0-2.8-.2-.7-.1-1.3-.3-2-.6-.8-.4-1.5-.9-1.9-1.6-.4-.7-.7-1.4-.7-2.2s.2-1.8.7-2.5c.5-.7,1.2-1.3,2.1-1.7.5-.3,1.2-.4,1.8-.6.7-.1,1.4-.2,2-.2v-4.4s1.5,0,1.5,0c0,.1,0,1,0,2.6,0,1.6,0,3.3,0,5s0,2.5,0,3.6c0,1.1,0,2,0,2.8ZM186.9,45v-1.7c-.6,0-1.2,0-1.8.2-.6.1-1,.3-1.4.4-.6.3-1.1.7-1.5,1.2-.3.5-.5,1.2-.5,1.9s.2,1.2.5,1.7c.3.5.8.8,1.2,1.1.4.2.9.4,1.5.5.5.1,1.1.2,1.7.2h.2c0,0,0-.5,0-1.4,0-.9,0-2.2,0-4Z"/>
      <path class="cls-1" d="M204.6,40.2c-.1,0-.5,0-1.3,0-.7,0-1.9,0-3.4,0,0,1.3,0,2.3,0,2.9,0,.7,0,1.6,0,2.7s0,2.2,0,3.4c0,1.1,0,1.9,0,2.3h-1.6c0-.4,0-1.2,0-2.3,0-1.2,0-2.3,0-3.4v-2.6c0-.6,0-1.6,0-3-1.3,0-2.4,0-3.3,0-.8,0-1.3,0-1.4,0v-1.3c.6,0,1.4,0,2.4,0,.9,0,1.9,0,3,0,1.5,0,2.8,0,3.8,0,1,0,1.6,0,1.7,0v1.3h0Z"/>
      <path class="cls-1" d="M211.8,46.4h-6.8c0,.7.1,1.3.4,1.8.3.6.7,1,1.3,1.4.4.2.8.4,1.2.5.5.1,1,.2,1.7.2s.7,0,1,0c.3,0,.5,0,.6,0l-.2,1.2s-.2,0-.5,0c-.3,0-.6,0-1,0-1,0-1.9-.1-2.6-.4-.7-.3-1.4-.6-1.8-1.1-.4-.4-.8-.9-1-1.5-.3-.6-.4-1.3-.4-2s.1-1.4.3-1.9c.2-.6.5-1.1,1-1.6.4-.4.8-.8,1.4-1,.6-.2,1.1-.3,1.7-.3s1.1,0,1.6.3c.5.2.8.4,1.2.8.4.4.7.9.9,1.5.2.6.3,1.3.3,2.1ZM210.4,45.3c-.1-.8-.4-1.4-.8-1.8-.4-.4-1-.7-1.7-.7s-1.3.2-1.8.7c-.5.5-.8,1.1-1,1.8h5.2Z"/>
      <path class="cls-1" d="M220,50.3v1.3h-.6c-.8,0-1.6,0-2.3-.2-.7-.2-1.3-.4-1.9-.7-.8-.4-1.4-1-1.8-1.7-.4-.7-.6-1.5-.6-2.3s.2-1.5.6-2.1c.4-.6.9-1.2,1.5-1.6.6-.4,1.2-.6,2-.8.8-.2,1.6-.3,2.5-.3h.4v1.3s0,0,0,0h-.1c-.7,0-1.3,0-1.8.1-.5,0-1,.2-1.4.4-.6.3-1.1.7-1.5,1.2-.4.5-.5,1.1-.5,1.7s.2,1.4.5,1.9c.3.5.8.9,1.4,1.2.4.2.9.4,1.5.5.6,0,1.1.1,1.8.1h.3c.1,0,.2,0,.3,0Z"/>
      <path class="cls-1" d="M229.7,51.5h-1.5c0-.2,0-.8,0-1.7,0-.9,0-1.6,0-1.9s0-.8,0-1.5c0-.6,0-1.1,0-1.4,0-.7-.2-1.2-.4-1.6-.3-.3-.7-.5-1.3-.5s-.8.1-1.4.3c-.6.2-1.2.5-1.8.9v7.3s-1.4,0-1.4,0c0-.2,0-1.2,0-3,0-1.7,0-3.2,0-4.3s0-1.7,0-2.8c0-1.1,0-2.4,0-3.8h1.5v5.4s0,0,0,0c.9-.5,1.6-.8,2.2-1,.6-.2,1.1-.3,1.5-.3.8,0,1.5.3,1.9.8.5.5.7,1.2.7,2.1s0,1.5,0,2.1c0,.6,0,1,0,1.4,0,.6,0,1.2,0,2,0,.7,0,1.3,0,1.5Z"/>
      <path class="cls-1" d="M239.6,51.5h-1.5c0-.2,0-.8,0-1.7,0-1,0-1.6,0-1.8s0-.8,0-1.5c0-.6,0-1.1,0-1.4,0-.7-.2-1.2-.4-1.6-.3-.3-.7-.5-1.3-.5s-.9.1-1.4.3c-.6.2-1.1.5-1.7.9,0,0,0,.4,0,1.1,0,.7,0,1.3,0,1.9s0,1.6,0,2.6c0,1,0,1.6,0,1.6h-1.5s0-.4,0-1.2c0-.7,0-1.8,0-3.2s0-1.4,0-2.3c0-.9,0-1.8,0-2.8h1.5v1.1h0c.9-.5,1.6-.8,2.2-1,.6-.2,1.1-.3,1.5-.3.8,0,1.5.3,1.9.8.5.5.7,1.2.7,2.1s0,1.5,0,2.1c0,.6,0,1,0,1.4,0,.6,0,1.3,0,2.2,0,.9,0,1.3,0,1.4Z"/>
      <path class="cls-1" d="M243.4,40.2h-1.6v-1.6h1.6v1.6ZM243.3,51.5h-1.5c0-.1,0-.7,0-1.9,0-1.1,0-2.1,0-2.8s0-1.4,0-2.1c0-.8,0-1.7,0-2.7h1.5c0,.9,0,1.8,0,2.5,0,.8,0,1.5,0,2.1,0,1.5,0,2.6,0,3.5,0,.9,0,1.3,0,1.4Z"/>
      <path class="cls-1" d="M252.5,50.3v1.3h-.6c-.8,0-1.6,0-2.3-.2-.7-.2-1.3-.4-1.9-.7-.8-.4-1.4-1-1.8-1.7-.4-.7-.6-1.5-.6-2.3s.2-1.5.6-2.1c.4-.6.9-1.2,1.5-1.6.6-.4,1.2-.6,2-.8.8-.2,1.6-.3,2.5-.3h.4v1.3s0,0,0,0h-.1c-.7,0-1.3,0-1.8.1-.5,0-1,.2-1.4.4-.6.3-1.1.7-1.5,1.2-.4.5-.6,1.1-.6,1.7s.2,1.4.5,1.9c.3.5.8.9,1.4,1.2.4.2.9.4,1.5.5.6,0,1.1.1,1.8.1h.3c.1,0,.2,0,.3,0Z"/>
      <path class="cls-1" d="M261.6,46.1c0,1.6,0,2.8,0,3.8,0,1,0,1.5,0,1.6,0,0-.4,0-.9,0-.5,0-1.2,0-2,0s-1,0-1.6-.1c-.5,0-1-.2-1.3-.4-.5-.2-.9-.6-1.2-1-.3-.4-.5-.9-.5-1.5s.2-1.1.6-1.6c.4-.4.9-.8,1.5-1.1.4-.2,1-.3,1.6-.5.7-.1,1.5-.2,2.3-.3,0-.5-.2-.9-.4-1.2-.2-.3-.5-.6-.9-.7-.3-.1-.6-.2-.9-.2-.3,0-.7,0-1.2,0s-.5,0-.7,0c-.2,0-.5,0-.8,0l.2-1.2c0,0,.3,0,.6,0,.3,0,.7,0,1.1,0,.7,0,1.4,0,2,.2.6.2,1.1.4,1.5.7.4.3.6.7.8,1.2.2.5.3,1.2.3,2.1ZM260.1,48.4v-.8c0-.3,0-.7,0-1.1-.3,0-.8,0-1.5.2-.7,0-1.3.2-1.7.4-.4.1-.7.3-.9.6-.3.3-.4.6-.4,1s.1.8.3,1c.2.3.6.5,1,.6.3.1.7.2,1,.2.4,0,.8,0,1.2,0s.3,0,.5,0c.2,0,.4,0,.6,0v-.6c0-.4,0-.9,0-1.5Z"/>
      <path class="cls-1" d="M265.9,51.5h-1.5c0,0,0-1,0-2.8,0-1.8,0-3.2,0-4.4s0-1.7,0-2.8c0-1.1,0-2.4,0-3.9h1.5c0,1,0,2.1,0,3.4,0,1.3,0,2.4,0,3.2,0,1.9,0,3.6,0,5,0,1.4,0,2.2,0,2.3Z"/>
      <path class="cls-1" d="M283.1,50.4c0,0,0,.2,0,.5,0,.3,0,.5,0,.9h-.3c-1.5,0-2.9-.2-4.1-.6-1.2-.4-2.2-1-2.9-1.7-.5-.5-1-1.1-1.3-1.8-.3-.7-.5-1.5-.5-2.4s.2-1.6.5-2.2c.3-.7.7-1.3,1.2-1.8.7-.7,1.7-1.3,2.9-1.7,1.2-.4,2.5-.6,3.9-.6h.4c0,.1,0,.3,0,.5,0,.2,0,.5,0,.8h-.3c-.8,0-1.6,0-2.5.3-.8.2-1.6.4-2.2.8-.8.5-1.4,1-1.8,1.7-.4.7-.6,1.5-.6,2.3s.2,1.6.6,2.3c.4.7,1,1.3,1.8,1.8.7.4,1.4.7,2.3.9.8.2,1.7.3,2.5.3h.2c0,0,.2,0,.3,0Z"/>
      <path class="cls-1" d="M293.9,46.8c0,.7-.1,1.4-.4,2.1-.3.7-.6,1.2-1.1,1.7-.4.4-.9.7-1.4.9-.5.2-1.1.3-1.7.3s-1.2-.1-1.7-.3c-.5-.2-1-.5-1.4-.9-.5-.5-.8-1-1.1-1.7-.3-.7-.4-1.4-.4-2.1s.1-1.4.3-2c.2-.6.6-1.2,1-1.6.4-.4.9-.8,1.5-1,.6-.2,1.2-.4,1.8-.4s1.2.1,1.8.3c.5.2,1,.5,1.4,1,.5.5.8,1.1,1.1,1.7.2.6.4,1.3.4,2ZM292.4,46.8c0-.6,0-1.2-.3-1.7-.2-.6-.5-1-.9-1.4-.2-.2-.5-.4-.9-.6-.3-.1-.7-.2-1.1-.2s-.8,0-1.1.2c-.3.1-.6.4-.9.7-.3.3-.6.8-.8,1.3-.2.5-.3,1.1-.3,1.6s0,1.2.3,1.8c.2.5.5,1,.9,1.4.2.2.5.4.9.5.3.1.7.2,1,.2s.8,0,1.1-.2c.3-.1.6-.3.9-.6.4-.4.6-.8.8-1.3.2-.5.3-1.1.3-1.6Z"/>
      <path class="cls-1" d="M297.4,51.5h-1.5c0,0,0-1,0-2.8,0-1.8,0-3.2,0-4.4s0-1.7,0-2.8c0-1.1,0-2.4,0-3.9h1.5c0,1,0,2.1,0,3.4,0,1.3,0,2.4,0,3.2,0,1.9,0,3.6,0,5,0,1.4,0,2.2,0,2.3Z"/>
      <path class="cls-1" d="M301.9,51.5h-1.5c0,0,0-1,0-2.8,0-1.8,0-3.2,0-4.4s0-1.7,0-2.8c0-1.1,0-2.4,0-3.9h1.5c0,1,0,2.1,0,3.4,0,1.3,0,2.4,0,3.2,0,1.9,0,3.6,0,5,0,1.4,0,2.2,0,2.3Z"/>
      <path class="cls-1" d="M312.2,46.4h-6.8c0,.7.1,1.3.4,1.8.3.6.7,1,1.3,1.4.4.2.8.4,1.2.5.5.1,1,.2,1.7.2s.7,0,1,0c.3,0,.5,0,.6,0l-.2,1.2c0,0-.2,0-.5,0-.3,0-.6,0-1,0-1,0-1.9-.1-2.6-.4-.7-.3-1.4-.6-1.8-1.1-.4-.4-.8-.9-1-1.5-.3-.6-.4-1.3-.4-2s.1-1.4.3-1.9c.2-.6.5-1.1,1-1.6.4-.4.8-.8,1.4-1,.6-.2,1.1-.3,1.7-.3s1.1,0,1.6.3c.5.2.8.4,1.2.8.4.4.7.9.9,1.5.2.6.3,1.3.3,2.1ZM310.8,45.3c-.1-.8-.4-1.4-.8-1.8-.4-.4-1-.7-1.7-.7s-1.3.2-1.8.7c-.5.5-.8,1.1-1,1.8h5.2Z"/>
      <path class="cls-1" d="M321.3,41.9c0,.1,0,.8,0,1.9,0,1.1,0,2.2,0,3.2s0,1.4,0,2.1c0,.7,0,1.4,0,1.9,0,1.1-.2,1.9-.6,2.5-.4.6-.9,1.1-1.6,1.5-.5.3-1.2.5-2,.7-.8.2-1.7.2-2.8.2l-.2-1.2c.7,0,1.4,0,2-.1.6,0,1.1-.2,1.6-.4.7-.3,1.2-.6,1.5-1.1.3-.5.4-1,.5-1.7h-.5c-.7,0-1.5,0-2.3-.3-.8-.2-1.5-.5-2-.9-.6-.4-1-.9-1.3-1.5-.3-.6-.5-1.3-.5-2.2s.2-1.7.7-2.3c.5-.7,1.1-1.2,1.9-1.6.6-.3,1.2-.5,1.9-.6.7-.1,1.5-.2,2.5-.2h.5c.2,0,.4,0,.6,0ZM319.8,46.9c0-.5,0-1,0-1.7,0-.7,0-1.4,0-2.1h-.2c-.6,0-1.1,0-1.5.1-.4,0-.9.2-1.4.4-.6.3-1.1.7-1.5,1.2-.3.5-.5,1.1-.5,1.8s.2,1.3.5,1.8c.3.5.8.9,1.4,1.1.4.2.8.3,1.3.4.5.1,1,.2,1.6.2h.3c0,0,0-.4,0-1.1,0-.6,0-1.4,0-2.2Z"/>
      <path class="cls-1" d="M331.4,46.4h-6.8c0,.7.1,1.3.4,1.8.3.6.7,1,1.3,1.4.4.2.8.4,1.2.5.5.1,1,.2,1.7.2s.7,0,1,0c.3,0,.5,0,.6,0l-.2,1.2s-.2,0-.5,0c-.3,0-.6,0-1,0-1,0-1.9-.1-2.6-.4-.7-.3-1.4-.6-1.8-1.1-.4-.4-.8-.9-1-1.5-.3-.6-.4-1.3-.4-2s.1-1.4.3-1.9c.2-.6.5-1.1,1-1.6.4-.4.8-.8,1.4-1,.6-.2,1.1-.3,1.7-.3s1.1,0,1.6.3c.5.2.8.4,1.2.8.4.4.7.9.9,1.5.2.6.3,1.3.3,2.1ZM330,45.3c-.1-.8-.4-1.4-.8-1.8-.4-.4-1-.7-1.7-.7s-1.3.2-1.8.7c-.5.5-.8,1.1-1,1.8h5.2Z"/>
      <path class="cls-1" d="M28.9,0C12.9,0,0,12.9,0,28.9s1.1,9.2,3.2,13.2c-.8-2.5-1.2-5.2-1.2-8C2,18.7,14.5,6.1,30,6.1s6.1.5,8.8,1.4c-.2,0-.5,0-.7,0-11.3,0-20.5,9.2-20.5,20.5s.7,6.1,1.9,8.7c2.2-9,10.3-15.6,19.9-15.6s6.2.7,8.9,2c-1.2-.4-2.4-.7-3.7-.7-6,0-10.9,4.9-10.9,10.9s4.9,10.9,10.9,10.9,10.7-3.8,12.7-10.2c.3-1.6.4-3.3.4-5.1C57.8,12.9,44.8,0,28.9,0Z"/>
      <path class="cls-2" d="M27.1,39.5c-.3,1.3-.4,2.7-.4,4,0,5,1.7,9.6,4.6,13.2-10.2-3.2-17.9-11.8-19.9-22.4-.3,1.8-.5,3.6-.5,5.4,0,5.3,1.4,10.4,4,14.7.2,0,.3.2.5.3,0,0,.2,0,.3.1.2.1.4.2.6.3,0,0,.1,0,.2,0,3.8,1.8,8,2.8,12.5,2.8s.5,0,.8,0c0,0,.1,0,.2,0,.2,0,.5,0,.7,0,0,0,0,0,0,0,.6,0,1.1,0,1.6-.1.7,0,1.4-.2,2.2-.3,6.4-1.2,12-4.5,16.2-9.2-2.4,1.3-5.1,2-8,2-7.1,0-13.2-4.5-15.6-10.8Z"/>
    </g>
  </g>
</svg>