<svg width="332" height="58" viewBox="0 0 332 58" fill="none" xmlns="http://www.w3.org/2000/svg">
<g clip-path="url(#clip0_1002_636)">
<path d="M99.5424 32.1971L96.3054 32.8348L92.2156 10.4602L92.172 10.4665C91.6563 11.5414 90.5099 14.0381 88.7358 17.9544C86.9596 21.8729 85.2301 25.8028 83.5462 29.7462H80.8041C79.2281 26.0988 77.4893 22.1564 75.5834 17.9181C73.6765 13.6798 72.5591 11.2101 72.2281 10.507L72.1845 10.4997C72.1057 10.8455 71.5734 13.3838 70.5826 18.1133C69.5929 22.8429 68.6508 27.7355 67.7544 32.7901L64.6699 32.2345C65.9948 26.5131 67.2336 20.8458 68.3862 15.2303C69.5379 9.6159 70.1676 6.56983 70.2724 6.09106L73.4316 5.6341C73.5654 5.93943 74.5033 8.07677 76.2432 12.0451C77.9852 16.0134 80.0343 20.5861 82.3946 25.7623H82.5128C84.316 21.7005 86.2229 17.3739 88.2367 12.7804C90.2505 8.18686 91.2974 5.80546 91.3762 5.63306L94.3777 5.87089C94.4182 6.16376 94.966 9.07274 96.0273 14.603C97.0856 20.1354 98.259 25.9991 99.5424 32.1971Z" fill="#041E41"/>
<path d="M105.88 8.60136H102.408V5.16895H105.88V8.60136ZM105.711 32.5805H102.579C102.593 32.3697 102.611 31.0632 102.631 28.6641C102.653 26.265 102.663 24.2835 102.663 22.7184C102.663 21.3527 102.66 19.851 102.653 18.2152C102.646 16.5774 102.621 14.6592 102.579 12.4575H105.711C105.689 14.3664 105.669 16.1537 105.651 17.8175C105.634 19.4823 105.625 20.9622 105.625 22.2614C105.625 25.3511 105.64 27.8291 105.669 29.6995C105.696 31.5669 105.711 32.5275 105.711 32.5805Z" fill="#041E41"/>
<path d="M126.427 32.5803H123.295C123.309 32.2096 123.327 30.982 123.348 28.8976C123.369 26.8153 123.378 25.5275 123.378 25.0363C123.378 24.3467 123.376 23.3279 123.369 21.9798C123.363 20.6339 123.351 19.6483 123.338 19.0231C123.296 17.4985 123.006 16.4028 122.461 15.7392C121.917 15.0755 120.975 14.7432 119.636 14.7432C118.827 14.7432 117.825 14.981 116.632 15.4588C115.437 15.9344 114.229 16.5441 113.009 17.2856C113.009 17.432 113.002 18.2213 112.988 19.6556C112.973 21.0898 112.967 22.3963 112.967 23.5782C112.967 25.1183 112.98 26.9774 113.009 29.1542C113.039 31.332 113.053 32.4734 113.053 32.5793H109.922C109.922 32.4869 109.934 31.6758 109.963 30.1439C109.989 28.612 110.007 26.3355 110.007 23.3123C110.007 21.9196 110.002 20.2901 109.996 18.4207C109.988 16.5513 109.963 14.5625 109.922 12.4542H113.009V14.7422L113.031 14.7837C114.883 13.7098 116.429 12.9611 117.667 12.5384C118.904 12.1167 119.935 11.9038 120.755 11.9038C122.454 11.9038 123.815 12.4397 124.842 13.5073C125.869 14.575 126.385 16.0404 126.385 17.8994C126.385 19.5725 126.378 21.0161 126.363 22.2312C126.348 23.4463 126.342 24.4329 126.342 25.19C126.342 26.3978 126.356 27.9089 126.386 29.7202C126.413 31.5345 126.427 32.4879 126.427 32.5803Z" fill="#041E41"/>
<path d="M146.803 32.5803H143.671C143.687 32.2096 143.703 30.982 143.724 28.8976C143.746 26.8153 143.757 25.5275 143.757 25.0363C143.757 24.3467 143.753 23.3279 143.747 21.9798C143.739 20.6339 143.728 19.6483 143.716 19.0231C143.675 17.4985 143.384 16.4028 142.839 15.7392C142.295 15.0755 141.354 14.7432 140.015 14.7432C139.205 14.7432 138.202 14.981 137.008 15.4588C135.814 15.9344 134.608 16.5441 133.387 17.2856C133.387 17.432 133.381 18.2213 133.367 19.6556C133.351 21.0898 133.345 22.3963 133.345 23.5782C133.345 25.1183 133.36 26.9774 133.387 29.1542C133.415 31.332 133.431 32.4734 133.431 32.5793H130.297C130.297 32.4869 130.311 31.6758 130.34 30.1439C130.366 28.612 130.382 26.3355 130.382 23.3123C130.382 21.9196 130.378 20.2901 130.371 18.4207C130.363 16.5513 130.34 14.5625 130.297 12.4542H133.387V14.7422L133.408 14.7837C135.261 13.7098 136.807 12.9611 138.046 12.5384C139.284 12.1167 140.313 11.9038 141.134 11.9038C142.83 11.9038 144.193 12.4397 145.221 13.5073C146.249 14.575 146.762 16.0404 146.762 17.8994C146.762 19.5725 146.755 21.0161 146.742 22.2312C146.728 23.4463 146.721 24.4329 146.721 25.19C146.721 26.3978 146.733 27.9089 146.762 29.7202C146.79 31.5345 146.803 32.4879 146.803 32.5803Z" fill="#041E41"/>
<path d="M166.863 21.7763H152.488C152.502 23.1836 152.799 24.4745 153.382 25.6491C153.965 26.8227 154.859 27.7947 156.065 28.5643C156.834 29.0566 157.707 29.4242 158.689 29.6683C159.668 29.9144 160.848 30.038 162.227 30.038C162.983 30.038 163.674 30.0183 164.304 29.9819C164.931 29.9466 165.32 29.9217 165.466 29.9092L165.109 32.5357C165.001 32.5513 164.649 32.5752 164.053 32.6105C163.456 32.6448 162.753 32.6645 161.942 32.6645C159.82 32.6645 157.971 32.3883 156.4 31.8368C154.826 31.2853 153.537 30.5241 152.528 29.5551C151.666 28.745 150.933 27.7096 150.33 26.4477C149.725 25.1859 149.423 23.7849 149.423 22.2447C149.423 20.7305 149.648 19.3627 150.099 18.1393C150.552 16.918 151.227 15.7829 152.13 14.7329C152.914 13.8304 153.883 13.1325 155.047 12.6402C156.207 12.15 157.411 11.9028 158.659 11.9028C159.892 11.9028 160.987 12.0908 161.942 12.4626C162.896 12.8344 163.729 13.4004 164.43 14.1565C165.214 15.0081 165.81 16.055 166.222 17.2971C166.638 18.5433 166.85 20.0347 166.863 21.7763ZM163.773 19.531C163.56 17.8797 163.001 16.5846 162.094 15.6447C161.187 14.7048 159.992 14.2344 158.508 14.2344C157.024 14.2344 155.784 14.7111 154.791 15.6634C153.798 16.6158 153.109 17.9057 152.725 19.53L163.773 19.531Z" fill="#041E41"/>
<path d="M181.693 26.7604C181.693 27.7429 181.453 28.6184 180.975 29.389C180.499 30.1575 179.875 30.7807 179.107 31.2584C178.298 31.7631 177.34 32.1453 176.235 32.405C175.128 32.6625 173.903 32.7913 172.567 32.7913C171.917 32.7913 171.244 32.7601 170.551 32.6968C169.854 32.6324 169.459 32.5929 169.364 32.5794L169.247 29.9529C169.364 29.9675 169.826 30.0059 170.626 30.0693C171.427 30.1336 172.225 30.1658 173.017 30.1658C173.482 30.1658 174.077 30.1264 174.806 30.0464C175.532 29.9675 176.134 29.8231 176.612 29.6123C177.274 29.3225 177.763 28.9653 178.081 28.5426C178.399 28.1209 178.557 27.6141 178.557 27.019C178.557 26.4759 178.42 26.0345 178.141 25.6959C177.862 25.3573 177.479 25.0292 176.988 24.7103C176.458 24.352 175.732 23.9709 174.812 23.5648C173.892 23.1608 173.12 22.7734 172.499 22.4016C171.612 21.8564 170.932 21.2135 170.462 20.4699C169.991 19.7274 169.755 18.8643 169.755 17.8808C169.755 16.8983 170.025 16.0176 170.563 15.2325C171.1 14.4515 171.82 13.8201 172.724 13.3413C173.507 12.9176 174.373 12.6351 175.321 12.4959C176.271 12.3568 177.19 12.2861 178.078 12.2861C178.888 12.2861 179.553 12.3017 180.069 12.3287C180.586 12.3568 180.886 12.3723 180.965 12.3723L181.185 14.9988C181.092 14.9988 180.682 14.9708 179.959 14.9126C179.236 14.8576 178.446 14.8285 177.582 14.8285C176.971 14.8285 176.391 14.8815 175.84 14.9895C175.291 15.0965 174.824 15.2512 174.437 15.4496C173.865 15.7455 173.459 16.1007 173.213 16.5151C172.969 16.9316 172.846 17.3325 172.846 17.7198C172.846 18.2516 173.016 18.7096 173.363 19.0938C173.706 19.4791 174.111 19.8042 174.575 20.069C175.118 20.3889 175.858 20.7659 176.801 21.2042C177.741 21.6435 178.425 21.9956 178.848 22.2604C179.775 22.843 180.482 23.4942 180.966 24.2108C181.449 24.9295 181.693 25.7769 181.693 26.7604Z" fill="#041E41"/>
<path d="M203.056 22.4972C203.056 24.0364 202.779 25.5111 202.23 26.9163C201.679 28.3235 200.888 29.5251 199.853 30.52C198.977 31.3571 198.007 31.9937 196.94 32.431C195.872 32.8692 194.661 33.0884 193.312 33.0884C192.039 33.0884 190.844 32.8734 189.731 32.4424C188.618 32.0104 187.623 31.3779 186.747 30.5398C185.739 29.5718 184.962 28.3765 184.413 26.9578C183.861 25.5371 183.585 24.0374 183.585 22.4578C183.585 20.9311 183.819 19.528 184.29 18.2464C184.761 16.9669 185.494 15.8152 186.488 14.7922C187.376 13.8637 188.411 13.1503 189.589 12.6517C190.769 12.1543 192.016 11.905 193.328 11.905C194.707 11.905 195.958 12.1356 197.077 12.5926C198.196 13.0516 199.195 13.7381 200.069 14.6541C201.077 15.702 201.825 16.8807 202.316 18.1883C202.809 19.4948 203.056 20.9311 203.056 22.4972ZM199.88 22.6353C199.88 21.3912 199.679 20.1792 199.273 18.9994C198.868 17.8185 198.241 16.8257 197.392 16.0177C196.874 15.515 196.262 15.1266 195.55 14.8556C194.841 14.5835 194.1 14.4464 193.33 14.4464C192.414 14.4464 191.618 14.5928 190.941 14.8846C190.263 15.1765 189.627 15.6334 189.029 16.2555C188.327 16.9721 187.771 17.886 187.367 18.9994C186.963 20.1127 186.761 21.2665 186.761 22.4578C186.761 23.8099 186.965 25.0521 187.378 26.1851C187.789 27.3182 188.454 28.2955 189.369 29.1159C189.886 29.5801 190.482 29.9353 191.16 30.1794C191.836 30.4234 192.554 30.547 193.312 30.547C194.146 30.547 194.927 30.4016 195.649 30.1098C196.371 29.819 197.006 29.3953 197.552 28.8386C198.307 28.0701 198.882 27.1427 199.282 26.0543C199.682 24.969 199.88 23.8286 199.88 22.6353Z" fill="#041E41"/>
<path d="M217.516 30.1222L217.158 32.6656C217.065 32.674 216.836 32.6833 216.471 32.6937C216.108 32.701 215.792 32.7072 215.527 32.7072C212.809 32.7072 210.753 32.1401 209.364 31.0071C207.97 29.873 207.274 28.1324 207.274 25.7842C207.274 24.3126 207.28 22.734 207.295 21.0505C207.307 19.367 207.317 17.2785 207.317 14.7849H203.973V12.4554H207.487V7.75391H210.364V12.4565H217.516V14.7859H210.364C210.364 15.0653 210.356 15.893 210.342 17.2702C210.328 18.6473 210.322 19.6682 210.322 20.3297C210.322 20.8854 210.322 21.5677 210.322 22.3757C210.322 23.1837 210.322 24.1433 210.322 25.2556C210.322 26.9785 210.786 28.2196 211.716 28.9809C212.645 29.7421 214.08 30.1222 216.021 30.1222C216.26 30.1222 216.544 30.1222 216.877 30.1222C217.211 30.1222 217.423 30.1222 217.516 30.1222Z" fill="#041E41"/>
<path d="M235.047 21.2197C235.047 24.5046 235.039 27.1789 235.024 29.2435C235.01 31.3092 235.002 32.4215 235.002 32.5804C234.871 32.597 234.252 32.6583 233.153 32.7632C232.052 32.867 230.636 32.92 228.899 32.92C227.812 32.92 226.719 32.8192 225.619 32.6198C224.518 32.4215 223.568 32.1359 222.777 31.763C221.714 31.2708 220.854 30.5988 220.199 29.7482C219.543 28.8977 219.216 27.8726 219.216 26.6752C219.216 25.4123 219.604 24.3187 220.381 23.3933C221.159 22.469 222.235 21.7202 223.616 21.149C224.478 20.7897 225.627 20.4677 227.07 20.1811C228.512 19.8955 230.152 19.6795 231.997 19.532C231.917 18.5018 231.659 17.6533 231.22 16.9927C230.78 16.3312 230.134 15.8285 229.284 15.4848C228.701 15.2469 228.048 15.0777 227.328 14.979C226.611 14.8793 225.775 14.8294 224.817 14.8294C224.218 14.8294 223.709 14.8419 223.291 14.8658C222.872 14.8897 222.303 14.9208 221.585 14.9551L221.902 12.3286C222.101 12.3151 222.495 12.2912 223.088 12.2549C223.678 12.2196 224.485 12.2019 225.506 12.2019C227.075 12.2019 228.47 12.365 229.698 12.689C230.927 13.013 231.946 13.5396 232.756 14.2676C233.513 14.9572 234.082 15.8078 234.468 16.8203C234.853 17.8329 235.047 19.2994 235.047 21.2197ZM231.998 26.025C231.998 25.5733 231.998 24.9989 231.998 24.3052C231.998 23.6125 231.993 22.8118 231.977 21.9041C231.396 21.9311 230.373 22.0484 228.914 22.254C227.455 22.4607 226.23 22.7577 225.236 23.1441C224.494 23.4255 223.834 23.8451 223.257 24.4049C222.681 24.9647 222.392 25.6595 222.392 26.4872C222.392 27.3938 222.636 28.1239 223.128 28.6765C223.622 29.231 224.291 29.6548 225.142 29.9487C225.793 30.1761 226.513 30.3392 227.306 30.4389C228.096 30.5396 228.931 30.5905 229.807 30.5905C230.07 30.5905 230.396 30.5822 230.782 30.5687C231.168 30.5552 231.572 30.5427 231.998 30.5292C231.998 30.4358 231.998 29.9965 231.998 29.2092C231.998 28.422 231.998 27.3606 231.998 26.025Z" fill="#041E41"/>
<path d="M265.291 25.0634C265.291 26.4291 264.97 27.6266 264.329 28.6537C263.685 29.6808 262.822 30.5127 261.736 31.1494C260.739 31.733 259.603 32.1734 258.317 32.4704C257.033 32.7685 255.608 32.919 254.048 32.919C253.197 32.919 252.32 32.8941 251.414 32.8443C250.506 32.7923 249.98 32.7612 249.834 32.7498L249.675 29.9104C249.861 29.9374 250.375 29.9862 251.222 30.0578C252.066 30.1305 253.063 30.1658 254.214 30.1658C254.915 30.1658 255.819 30.0713 256.931 29.8844C258.038 29.6975 258.893 29.4576 259.487 29.1636C260.266 28.7763 260.863 28.3089 261.279 27.7616C261.696 27.2132 261.906 26.5195 261.906 25.6793C261.906 24.7913 261.697 24.0384 261.279 23.4225C260.863 22.8067 260.171 22.2137 259.206 21.6435C258.584 21.2717 257.774 20.8542 256.785 20.39C255.791 19.9257 254.897 19.449 254.104 18.9578C252.755 18.1363 251.791 17.238 251.214 16.2638C250.639 15.2896 250.351 14.2054 250.351 13.0121C250.351 11.7928 250.612 10.7356 251.138 9.84035C251.661 8.94512 252.343 8.17971 253.176 7.54411C254.026 6.90748 255.067 6.42975 256.295 6.11195C257.526 5.79415 258.889 5.63525 260.39 5.63525C261.214 5.63525 262.047 5.66018 262.89 5.70899C263.735 5.75884 264.215 5.79104 264.336 5.8035L264.614 8.64186C264.494 8.62836 264.012 8.5837 263.16 8.50581C262.315 8.42688 261.266 8.38845 260.02 8.38845C259.278 8.38845 258.511 8.47154 257.724 8.63875C256.936 8.80595 256.242 9.06248 255.647 9.40935C255.118 9.71572 254.666 10.1446 254.293 10.692C253.923 11.2393 253.737 11.879 253.737 12.6143C253.737 13.2645 253.933 13.8907 254.323 14.4941C254.712 15.0975 255.445 15.7175 256.517 16.3541C257.057 16.6854 257.779 17.0666 258.671 17.4986C259.563 17.9307 260.442 18.397 261.301 18.8996C262.624 19.6827 263.621 20.5811 264.288 21.5947C264.956 22.6093 265.291 23.7653 265.291 25.0634Z" fill="#041E41"/>
<path d="M280.493 30.1222L280.135 32.6656C280.041 32.674 279.813 32.6833 279.449 32.6937C279.084 32.701 278.769 32.7072 278.507 32.7072C275.789 32.7072 273.731 32.1401 272.339 31.0071C270.948 29.873 270.252 28.1324 270.252 25.7842C270.252 24.3126 270.26 22.734 270.273 21.0505C270.288 19.367 270.294 17.2785 270.294 14.7849H266.952V12.4554H270.463V7.75391H273.341V12.4565H280.494V14.7859H273.341C273.341 15.0653 273.335 15.893 273.32 17.2702C273.306 18.6473 273.299 19.6682 273.299 20.3297C273.299 20.8854 273.299 21.5677 273.299 22.3757C273.299 23.1837 273.299 24.1433 273.299 25.2556C273.299 26.9785 273.763 28.2196 274.694 28.9809C275.625 29.7421 277.059 30.1222 279 30.1222C279.236 30.1222 279.524 30.1222 279.856 30.1222C280.188 30.1222 280.401 30.1222 280.493 30.1222Z" fill="#041E41"/>
<path d="M298.023 21.2197C298.023 24.5046 298.015 27.1789 298.003 29.2435C297.987 31.3092 297.981 32.4215 297.981 32.5804C297.849 32.597 297.231 32.6583 296.132 32.7632C295.032 32.867 293.613 32.92 291.876 32.92C290.789 32.92 289.697 32.8192 288.597 32.6198C287.497 32.4215 286.549 32.1359 285.754 31.763C284.694 31.2708 283.834 30.5988 283.179 29.7482C282.523 28.8977 282.195 27.8726 282.195 26.6752C282.195 25.4123 282.584 24.3187 283.359 23.3933C284.138 22.469 285.214 21.7202 286.595 21.149C287.455 20.7897 288.608 20.4677 290.048 20.1811C291.489 19.8955 293.131 19.6795 294.978 19.532C294.896 18.5018 294.636 17.6533 294.197 16.9927C293.759 16.3312 293.114 15.8285 292.265 15.4848C291.679 15.2469 291.028 15.0777 290.31 14.979C289.592 14.8793 288.754 14.8294 287.795 14.8294C287.199 14.8294 286.688 14.8419 286.27 14.8658C285.85 14.8897 285.284 14.9208 284.563 14.9551L284.881 12.3286C285.082 12.3151 285.476 12.2912 286.068 12.2549C286.658 12.2196 287.466 12.2019 288.485 12.2019C290.053 12.2019 291.448 12.365 292.679 12.689C293.907 13.013 294.924 13.5396 295.735 14.2676C296.491 14.9572 297.063 15.8078 297.447 16.8203C297.833 17.8329 298.023 19.2994 298.023 21.2197ZM294.978 26.025C294.978 25.5733 294.978 24.9989 294.978 24.3052C294.978 23.6125 294.97 22.8118 294.957 21.9041C294.373 21.9311 293.353 22.0484 291.894 22.254C290.436 22.4607 289.21 22.7577 288.214 23.1441C287.471 23.4255 286.81 23.8451 286.235 24.4049C285.658 24.9647 285.369 25.6595 285.369 26.4872C285.369 27.3938 285.614 28.1239 286.107 28.6765C286.598 29.231 287.272 29.6548 288.12 29.9487C288.77 30.1761 289.491 30.3392 290.284 30.4389C291.073 30.5396 291.907 30.5905 292.786 30.5905C293.05 30.5905 293.376 30.5822 293.761 30.5687C294.145 30.5552 294.552 30.5427 294.979 30.5292C294.979 30.4358 294.979 29.9965 294.979 29.2092C294.978 28.422 294.978 27.3606 294.978 26.025Z" fill="#041E41"/>
<path d="M312.778 30.1222L312.422 32.6656C312.327 32.674 312.097 32.6833 311.732 32.6937C311.369 32.701 311.054 32.7072 310.789 32.7072C308.07 32.7072 306.014 32.1401 304.623 31.0071C303.232 29.873 302.536 28.1324 302.536 25.7842C302.536 24.3126 302.542 22.734 302.556 21.0505C302.571 19.367 302.577 17.2785 302.577 14.7849H299.235V12.4554H302.747V7.75391H305.625V12.4565H312.778V14.7859H305.625C305.625 15.0653 305.617 15.893 305.605 17.2702C305.589 18.6473 305.582 19.6682 305.582 20.3297C305.582 20.8854 305.582 21.5677 305.582 22.3757C305.582 23.1837 305.582 24.1433 305.582 25.2556C305.582 26.9785 306.05 28.2196 306.978 28.9809C307.907 29.7421 309.342 30.1222 311.283 30.1222C311.521 30.1222 311.806 30.1222 312.139 30.1222C312.472 30.1222 312.683 30.1222 312.778 30.1222Z" fill="#041E41"/>
<path d="M332 21.7763H317.625C317.64 23.1836 317.938 24.4745 318.52 25.6491C319.103 26.8227 319.995 27.7947 321.202 28.5643C321.97 29.0566 322.844 29.4242 323.825 29.6683C324.805 29.9144 325.985 30.038 327.363 30.038C328.118 30.038 328.812 30.0183 329.439 29.9819C330.069 29.9466 330.457 29.9217 330.602 29.9092L330.244 32.5357C330.138 32.5513 329.786 32.5752 329.189 32.6105C328.593 32.6448 327.89 32.6645 327.079 32.6645C324.957 32.6645 323.106 32.3883 321.538 31.8368C319.965 31.2853 318.675 30.5241 317.667 29.5551C316.804 28.745 316.07 27.7096 315.466 26.4477C314.863 25.1859 314.561 23.7849 314.561 22.2447C314.561 20.7305 314.787 19.3627 315.238 18.1393C315.69 16.918 316.366 15.7829 317.269 14.7329C318.052 13.8304 319.024 13.1325 320.185 12.6402C321.345 12.15 322.551 11.9028 323.799 11.9028C325.034 11.9028 326.129 12.0908 327.083 12.4626C328.037 12.8344 328.868 13.4004 329.571 14.1565C330.354 15.0081 330.952 16.055 331.363 17.2971C331.776 18.5433 331.987 20.0347 332 21.7763ZM328.911 19.531C328.7 17.8797 328.138 16.5846 327.231 15.6447C326.323 14.7048 325.127 14.2344 323.645 14.2344C322.162 14.2344 320.921 14.7111 319.93 15.6634C318.937 16.6158 318.248 17.9057 317.864 19.53L328.911 19.531Z" fill="#041E41"/>
<path d="M73.2766 50.3947C73.2704 50.4518 73.2538 50.6096 73.2248 50.8703C73.1957 51.131 73.1688 51.4145 73.1439 51.723C73.0941 51.723 73.037 51.723 72.9778 51.723C72.9177 51.723 72.8627 51.723 72.8129 51.723C71.2764 51.723 69.91 51.5288 68.7137 51.1403C67.5144 50.7509 66.5329 50.189 65.7652 49.4496C65.2288 48.9386 64.8065 48.3269 64.4932 47.6124C64.1809 46.8989 64.0273 46.0847 64.0273 45.1697C64.0273 44.3493 64.1809 43.5994 64.4901 42.9223C64.8003 42.2431 65.2018 41.6501 65.7008 41.1464C66.426 40.4142 67.3992 39.8326 68.6214 39.4037C69.8425 38.9737 71.1518 38.7598 72.5442 38.7598C72.6147 38.7598 72.6946 38.7598 72.7818 38.7598C72.8689 38.7598 72.9332 38.7598 72.9716 38.7598C72.9779 38.8719 72.9882 39.0537 73.0079 39.3019C73.0287 39.5501 73.0505 39.8181 73.0743 40.1068C73.01 40.1068 72.9581 40.1068 72.9146 40.1068C72.8689 40.1068 72.817 40.1068 72.7538 40.1068C71.9642 40.1068 71.1467 40.195 70.3021 40.3685C69.4555 40.5419 68.7283 40.8036 68.1151 41.1495C67.3193 41.6044 66.7082 42.188 66.2798 42.8994C65.8492 43.6098 65.6355 44.3763 65.6355 45.1988C65.6355 46.0504 65.8264 46.8262 66.2102 47.5251C66.5972 48.2231 67.2052 48.8088 68.0362 49.2834C68.7158 49.6739 69.4784 49.9585 70.3198 50.135C71.1602 50.3126 71.9984 50.4009 72.8305 50.4009C72.8679 50.4009 72.927 50.4009 73.009 50.4009C73.0951 50.404 73.1822 50.4019 73.2766 50.3947Z" fill="#041E41"/>
<path d="M83.3538 46.7513C83.3538 47.4825 83.2231 48.1825 82.9616 48.8513C82.7002 49.5201 82.3236 50.0903 81.8318 50.5618C81.4168 50.9595 80.9541 51.2628 80.4467 51.4705C79.9425 51.6782 79.3657 51.7821 78.7234 51.7821C78.1186 51.7821 77.5521 51.6793 77.023 51.4747C76.4949 51.2701 76.0228 50.9699 75.6068 50.5722C75.1275 50.1121 74.7571 49.545 74.4967 48.8679C74.2352 48.1949 74.1045 47.4814 74.1045 46.7306C74.1045 46.0067 74.2165 45.3389 74.4406 44.7303C74.6627 44.1217 75.0133 43.5765 75.4833 43.0904C75.9077 42.6491 76.3974 42.3084 76.9576 42.0737C77.5179 41.8359 78.1113 41.7185 78.7338 41.7185C79.3874 41.7185 79.9819 41.8276 80.5142 42.0436C81.0474 42.2627 81.5205 42.5878 81.9366 43.0229C82.4149 43.5204 82.7707 44.0802 83.0042 44.7023C83.2376 45.3233 83.3538 46.0077 83.3538 46.7513ZM81.8453 46.8178C81.8453 46.2269 81.7498 45.6505 81.5579 45.0917C81.3649 44.5299 81.0672 44.0584 80.6646 43.6741C80.4187 43.4352 80.1261 43.2504 79.789 43.1226C79.4518 42.9928 79.1001 42.9274 78.7349 42.9274C78.3001 42.9274 77.9215 42.997 77.5988 43.1351C77.2772 43.2743 76.9742 43.4924 76.691 43.7873C76.3579 44.1269 76.0944 44.561 75.9025 45.0917C75.7105 45.6193 75.613 46.1666 75.613 46.7326C75.613 47.3745 75.7126 47.9664 75.9087 48.5034C76.1027 49.0424 76.4181 49.5056 76.8528 49.8971C77.0987 50.1173 77.382 50.2855 77.7046 50.4018C78.0262 50.5171 78.3676 50.5753 78.7255 50.5753C79.1229 50.5753 79.4943 50.5078 79.8367 50.3686C80.1801 50.2305 80.482 50.03 80.7403 49.7642C81.0993 49.3986 81.3742 48.9593 81.5631 48.4421C81.7498 47.9259 81.8453 47.3838 81.8453 46.8178Z" fill="#041E41"/>
<path d="M98.8604 51.5413H97.3705C97.3778 51.4728 97.3861 51.0303 97.3965 50.2172C97.4068 49.406 97.412 48.6386 97.412 47.9199C97.412 47.6353 97.4099 47.1711 97.4068 46.5241C97.4037 45.8791 97.3985 45.3941 97.3913 45.0742C97.3736 44.3171 97.2211 43.7948 96.9399 43.5029C96.6598 43.2142 96.2251 43.0678 95.6379 43.0678C95.2903 43.0678 94.8784 43.1571 94.4012 43.3326C93.9239 43.5081 93.3865 43.7823 92.7858 44.1562C92.7858 44.1863 92.7889 44.2507 92.7962 44.3441C92.8034 44.4376 92.8066 44.5602 92.8066 44.7108C92.8066 45.2186 92.8034 45.7348 92.7962 46.2582C92.79 46.7837 92.7858 47.2832 92.7858 47.7589C92.7858 48.8006 92.7931 49.6761 92.8066 50.3844C92.82 51.0927 92.8263 51.48 92.8263 51.5413H91.3395C91.3395 51.4728 91.3457 51.0906 91.3603 50.3979C91.3738 49.702 91.38 48.8837 91.38 47.9375C91.38 47.6229 91.3789 47.1451 91.3748 46.5054C91.3727 45.8656 91.3675 45.3941 91.3603 45.0919C91.353 44.8146 91.3281 44.5508 91.2835 44.2964C91.2399 44.0461 91.158 43.8301 91.0397 43.6535C90.9058 43.4583 90.7367 43.3129 90.5292 43.2142C90.3197 43.1166 90.025 43.0667 89.6411 43.0667C89.2873 43.0667 88.8744 43.1737 88.4024 43.3845C87.9293 43.5953 87.3887 43.8996 86.7766 44.2953C86.7766 44.4023 86.7735 44.8011 86.7673 45.4959C86.76 46.1876 86.7569 46.7546 86.7569 47.1939C86.7569 47.9407 86.7641 48.8359 86.7766 49.8796C86.7911 50.9254 86.7974 51.479 86.7974 51.5413H85.3096C85.3096 51.4904 85.3158 51.1238 85.3303 50.4404C85.3438 49.7571 85.35 48.6251 85.35 47.0433C85.35 46.5282 85.35 45.8334 85.3459 44.9569C85.3407 44.0814 85.3303 43.0896 85.3106 41.9814H86.7776V43.0792L86.788 43.0896C87.2103 42.7801 87.7404 42.4758 88.3785 42.1725C89.0176 41.8714 89.583 41.7197 90.0727 41.7197C90.6911 41.7197 91.2057 41.8516 91.6165 42.1123C92.0295 42.374 92.3241 42.7063 92.5005 43.1083H92.5202C93.2433 42.6544 93.9104 42.3096 94.5184 42.0739C95.1264 41.8371 95.6441 41.7197 96.0736 41.7197C96.942 41.7197 97.6206 41.9731 98.1092 42.4799C98.5968 42.9878 98.8417 43.6743 98.8417 44.5384C98.8417 45.2082 98.8375 45.7711 98.8313 46.2281C98.8261 46.684 98.8209 47.169 98.8209 47.68C98.8209 48.7393 98.8272 49.6356 98.8417 50.3667C98.8521 51.101 98.8604 51.4915 98.8604 51.5413Z" fill="#041E41"/>
<path d="M115.158 51.5413H113.67C113.677 51.4728 113.686 51.0303 113.694 50.2172C113.706 49.406 113.711 48.6386 113.711 47.9199C113.711 47.6353 113.708 47.1711 113.706 46.5241C113.701 45.8791 113.697 45.3941 113.69 45.0742C113.67 44.3171 113.522 43.7948 113.242 43.5029C112.96 43.2142 112.525 43.0678 111.939 43.0678C111.59 43.0678 111.178 43.1571 110.701 43.3326C110.226 43.5081 109.686 43.7823 109.086 44.1562C109.086 44.1863 109.09 44.2507 109.097 44.3441C109.103 44.4376 109.106 44.5602 109.106 44.7108C109.106 45.2186 109.103 45.7348 109.097 46.2582C109.09 46.7837 109.086 47.2832 109.086 47.7589C109.086 48.8006 109.094 49.6761 109.107 50.3844C109.121 51.0937 109.128 51.48 109.128 51.5413H107.64C107.64 51.4728 107.648 51.0906 107.661 50.3979C107.674 49.702 107.68 48.8837 107.68 47.9375C107.68 47.6229 107.679 47.1451 107.676 46.5054C107.673 45.8656 107.666 45.3941 107.661 45.0919C107.654 44.8146 107.628 44.5508 107.583 44.2964C107.54 44.0461 107.458 43.8301 107.338 43.6535C107.207 43.4583 107.037 43.3129 106.829 43.2142C106.619 43.1166 106.325 43.0667 105.94 43.0667C105.588 43.0667 105.173 43.1737 104.701 43.3845C104.23 43.5953 103.686 43.8996 103.076 44.2953C103.076 44.4023 103.073 44.8011 103.066 45.4959C103.059 46.1876 103.056 46.7546 103.056 47.1939C103.056 47.9407 103.062 48.8359 103.076 49.8796C103.09 50.9254 103.096 51.479 103.096 51.5413H101.609C101.609 51.4904 101.614 51.1238 101.629 50.4404C101.642 49.7571 101.649 48.6251 101.649 47.0433C101.649 46.5282 101.648 45.8334 101.646 44.9569C101.642 44.0814 101.629 43.0896 101.61 41.9814H103.077V43.0792L103.086 43.0896C103.508 42.7801 104.038 42.4758 104.678 42.1725C105.315 41.8714 105.882 41.7197 106.372 41.7197C106.99 41.7197 107.504 41.8516 107.916 42.1123C108.328 42.374 108.622 42.7063 108.799 43.1083H108.818C109.542 42.6544 110.207 42.3096 110.816 42.0739C111.423 41.8371 111.941 41.7197 112.371 41.7197C113.24 41.7197 113.919 41.9731 114.409 42.4799C114.897 42.9878 115.141 43.6743 115.141 44.5384C115.141 45.2082 115.137 45.7711 115.13 46.2281C115.124 46.684 115.121 47.169 115.121 47.68C115.121 48.7393 115.127 49.6356 115.141 50.3667C115.151 51.101 115.158 51.4915 115.158 51.5413Z" fill="#041E41"/>
<path d="M125.043 51.5413H123.594V50.455L123.586 50.4456C123.144 50.7312 122.594 51.0272 121.934 51.3305C121.277 51.6327 120.629 51.7833 119.991 51.7833C119.124 51.7833 118.446 51.5257 117.955 51.0096C117.466 50.4934 117.221 49.7695 117.221 48.8369C117.221 48.3343 117.223 47.734 117.23 47.0382C117.238 46.3423 117.242 45.8386 117.242 45.5239C117.242 44.9507 117.235 44.2444 117.221 43.4043C117.207 42.563 117.2 42.0884 117.2 41.9825H118.687C118.687 42.0645 118.681 42.5184 118.669 43.344C118.655 44.1686 118.648 44.8271 118.648 45.3183C118.648 45.7524 118.65 46.2935 118.656 46.9416C118.664 47.5917 118.668 48.0507 118.668 48.3218C118.679 49.0654 118.808 49.6096 119.054 49.9565C119.301 50.3013 119.697 50.4737 120.246 50.4737C120.807 50.4737 121.423 50.3262 122.093 50.0292C122.764 49.7311 123.257 49.4704 123.574 49.2472C123.574 49.1724 123.577 48.8224 123.583 48.2003C123.589 47.5782 123.592 46.8024 123.592 45.876C123.592 45.2113 123.586 44.4168 123.574 43.4925C123.56 42.5661 123.553 42.0635 123.553 41.9814H125.041C125.041 42.0884 125.033 42.4426 125.021 43.0449C125.007 43.6452 125.002 44.6703 125.002 46.118C125.002 46.9312 125.002 47.6447 125.01 48.2585C125.021 48.8722 125.029 49.9679 125.043 51.5413Z" fill="#041E41"/>
<path d="M135.054 51.5412H133.567C133.574 51.3657 133.581 50.7831 133.592 49.7923C133.602 48.8015 133.607 48.1909 133.607 47.9562C133.607 47.629 133.604 47.1451 133.602 46.5053C133.598 45.8656 133.594 45.3982 133.586 45.1012C133.566 44.3752 133.43 43.856 133.171 43.5402C132.912 43.2245 132.464 43.0667 131.827 43.0667C131.443 43.0667 130.968 43.1799 130.4 43.4073C129.834 43.6327 129.26 43.9224 128.68 44.2745C128.68 44.3441 128.676 44.72 128.671 45.4003C128.663 46.0805 128.66 46.7037 128.66 47.2645C128.66 47.9956 128.666 48.8794 128.68 49.9128C128.695 50.9482 128.701 51.4904 128.701 51.5402H127.212C127.212 51.4966 127.218 51.1113 127.232 50.3843C127.246 49.6563 127.253 48.5741 127.253 47.1388C127.253 46.4773 127.251 45.7025 127.247 44.8156C127.245 43.9276 127.233 42.9815 127.213 41.9814H128.681V43.0677L128.689 43.0874C129.571 42.5785 130.305 42.2234 130.893 42.0219C131.482 41.8225 131.97 41.7207 132.361 41.7207C133.167 41.7207 133.814 41.9741 134.302 42.4809C134.791 42.9888 135.034 43.6846 135.034 44.5684C135.034 45.365 135.032 46.0494 135.024 46.6258C135.018 47.2043 135.014 47.6716 135.014 48.032C135.014 48.6063 135.021 49.3239 135.034 50.1828C135.048 51.0459 135.054 51.4976 135.054 51.5412Z" fill="#041E41"/>
<path d="M138.834 40.1515H137.185V38.521H138.834V40.1515ZM138.755 51.5413H137.265C137.272 51.4406 137.28 50.8206 137.29 49.6802C137.3 48.5399 137.306 47.599 137.306 46.8543C137.306 46.2073 137.304 45.4928 137.301 44.716C137.298 43.9381 137.285 43.0262 137.265 41.9804H138.755C138.743 42.8871 138.735 43.7356 138.726 44.5249C138.716 45.3162 138.713 46.0204 138.713 46.6383C138.713 48.1058 138.721 49.2835 138.735 50.1704C138.747 51.0615 138.755 51.5174 138.755 51.5413Z" fill="#041E41"/>
<path d="M146.876 50.374L146.707 51.5818C146.662 51.5859 146.553 51.5922 146.381 51.5953C146.208 51.6005 146.057 51.6036 145.932 51.6036C144.64 51.6036 143.664 51.3336 143.003 50.7946C142.341 50.2545 142.011 49.431 142.011 48.3145C142.011 47.6145 142.013 46.8657 142.021 46.065C142.026 45.2653 142.03 44.2735 142.03 43.0896H140.442V41.9825H142.111V39.7485H143.476V41.9825H146.875V43.0896H143.476C143.476 43.2204 143.474 43.6151 143.468 44.2683C143.46 44.9236 143.458 45.4086 143.458 45.7223C143.458 45.985 143.458 46.3101 143.458 46.6954C143.458 47.0786 143.458 47.5346 143.458 48.0621C143.458 48.8805 143.677 49.4704 144.12 49.8318C144.561 50.1943 145.244 50.374 146.165 50.374C146.278 50.374 146.414 50.374 146.574 50.374C146.731 50.374 146.831 50.374 146.876 50.374Z" fill="#041E41"/>
<path d="M157.334 42.3803C156.105 45.0847 154.813 47.9563 153.455 50.9972C152.098 54.037 151.375 55.653 151.286 55.8493L149.982 55.3674L151.942 51.3139C151.891 51.1893 151.496 50.2691 150.755 48.5566C150.013 46.845 149.11 44.796 148.045 42.4156L149.466 41.8008C150.158 43.5528 150.867 45.283 151.584 46.9925C152.303 48.702 152.68 49.6013 152.718 49.6896H152.738C152.775 49.6263 153.135 48.7923 153.817 47.1836C154.497 45.5759 155.241 43.8031 156.047 41.8621L157.334 42.3803Z" fill="#041E41"/>
<path d="M168.441 46.1439C168.441 47.7059 168.438 48.9761 168.431 49.9565C168.423 50.9379 168.421 51.4655 168.421 51.5413C168.356 51.5486 168.064 51.5776 167.542 51.6275C167.019 51.6774 166.345 51.7023 165.52 51.7023C165.003 51.7023 164.486 51.6545 163.963 51.56C163.44 51.4644 162.99 51.3294 162.612 51.1518C162.108 50.9182 161.701 50.5993 161.389 50.1943C161.077 49.7882 160.922 49.3032 160.922 48.7351C160.922 48.1359 161.106 47.6156 161.475 47.1763C161.843 46.7359 162.357 46.3797 163.01 46.1086C163.421 45.9394 163.969 45.7856 164.653 45.6506C165.337 45.5146 166.119 45.4128 166.993 45.3422C166.956 44.851 166.833 44.4511 166.624 44.1364C166.416 43.8217 166.109 43.5829 165.706 43.4198C165.428 43.3066 165.121 43.2256 164.776 43.1799C164.437 43.1332 164.039 43.1093 163.584 43.1093C163.3 43.1093 163.057 43.1145 162.859 43.127C162.66 43.1394 162.389 43.1529 162.049 43.1695L162.199 41.9222C162.293 41.916 162.482 41.9046 162.761 41.888C163.044 41.8703 163.426 41.863 163.911 41.863C164.656 41.863 165.318 41.9399 165.903 42.0957C166.485 42.2483 166.968 42.4976 167.354 42.8445C167.714 43.1716 167.984 43.5756 168.167 44.0575C168.349 44.5352 168.441 45.2331 168.441 46.1439ZM166.991 48.4288C166.991 48.2127 166.991 47.9406 166.991 47.6093C166.991 47.2822 166.99 46.9 166.982 46.469C166.707 46.4815 166.221 46.5376 165.528 46.6352C164.834 46.7338 164.251 46.8741 163.779 47.0589C163.428 47.1918 163.113 47.3912 162.839 47.6582C162.567 47.923 162.428 48.2532 162.428 48.6448C162.428 49.0768 162.546 49.4237 162.778 49.6864C163.011 49.9513 163.33 50.1507 163.735 50.2909C164.044 50.3989 164.386 50.4768 164.763 50.5235C165.138 50.5723 165.535 50.5952 165.95 50.5952C166.075 50.5952 166.231 50.5921 166.414 50.5848C166.597 50.5786 166.789 50.5723 166.991 50.5651C166.991 50.5214 166.991 50.3127 166.991 49.9378C166.991 49.5629 166.991 49.0633 166.991 48.4288Z" fill="#041E41"/>
<path d="M178.353 51.5412H176.865C176.872 51.3657 176.881 50.7831 176.89 49.7923C176.901 48.8015 176.904 48.1909 176.904 47.9562C176.904 47.629 176.904 47.1451 176.902 46.5053C176.898 45.8656 176.892 45.3982 176.886 45.1012C176.866 44.3752 176.729 43.856 176.47 43.5402C176.212 43.2245 175.765 43.0667 175.129 43.0667C174.744 43.0667 174.266 43.1799 173.7 43.4073C173.133 43.6327 172.56 43.9224 171.982 44.2745C171.982 44.3441 171.978 44.72 171.968 45.4003C171.963 46.0805 171.959 46.7037 171.959 47.2645C171.959 47.9956 171.966 48.8794 171.981 49.9128C171.992 50.9482 172.001 51.4904 172.001 51.5402H170.512C170.512 51.4966 170.518 51.1113 170.532 50.3843C170.545 49.6563 170.553 48.5741 170.553 47.1388C170.553 46.4773 170.552 45.7025 170.548 44.8156C170.545 43.9276 170.532 42.9815 170.512 41.9814H171.981V43.0677L171.989 43.0874C172.87 42.5785 173.603 42.2234 174.192 42.0219C174.779 41.8225 175.269 41.7207 175.658 41.7207C176.465 41.7207 177.112 41.9741 177.6 42.4809C178.089 42.9888 178.334 43.6846 178.334 44.5684C178.334 45.365 178.33 46.0494 178.323 46.6258C178.315 47.2043 178.313 47.6716 178.313 48.032C178.313 48.6063 178.318 49.3239 178.334 50.1828C178.346 51.0459 178.353 51.4976 178.353 51.5412Z" fill="#041E41"/>
<path d="M188.386 51.6929C188.349 51.6929 188.227 51.695 188.025 51.6992C187.825 51.7012 187.665 51.7033 187.544 51.7033C186.352 51.7033 185.417 51.6514 184.744 51.5475C184.07 51.4437 183.408 51.237 182.766 50.9286C181.925 50.5246 181.289 49.9897 180.854 49.3219C180.421 48.6521 180.202 47.9095 180.202 47.0901C180.202 46.1315 180.444 45.283 180.929 44.5425C181.415 43.8041 182.117 43.2235 183.027 42.8081C183.567 42.5568 184.18 42.3667 184.875 42.2369C185.569 42.1071 186.249 42.0417 186.918 42.0417L186.898 37.6746H188.386C188.386 37.8002 188.379 38.6851 188.364 40.3239C188.353 41.9638 188.342 43.6255 188.342 45.31C188.342 46.6404 188.35 47.843 188.36 48.919C188.37 49.9949 188.378 50.9182 188.386 51.6929ZM186.918 45.0389C186.918 44.7876 186.918 44.5093 186.918 44.2081C186.918 43.9048 186.918 43.6005 186.918 43.29C186.287 43.29 185.692 43.343 185.132 43.451C184.574 43.558 184.096 43.7023 183.699 43.8851C183.066 44.1749 182.578 44.5903 182.23 45.1282C181.883 45.6683 181.712 46.2997 181.712 47.0246C181.712 47.6737 181.878 48.2314 182.212 48.6967C182.548 49.1641 182.963 49.5296 183.462 49.7945C183.897 50.0292 184.387 50.2036 184.935 50.3189C185.478 50.4363 186.051 50.4944 186.651 50.4944C186.695 50.4944 186.736 50.4944 186.774 50.4944C186.811 50.4944 186.854 50.4944 186.898 50.4944C186.898 50.4373 186.899 49.9669 186.908 49.082C186.916 48.1972 186.918 46.8481 186.918 45.0389Z" fill="#041E41"/>
<path d="M204.563 40.2096C204.461 40.2096 204.041 40.2076 203.301 40.2003C202.561 40.193 201.44 40.1899 199.939 40.1899C199.925 41.4829 199.916 42.4643 199.909 43.1342C199.9 43.8041 199.899 44.7149 199.899 45.8708C199.899 46.981 199.902 48.1099 199.914 49.2565C199.925 50.402 199.932 51.1643 199.939 51.5413H198.368C198.379 51.1643 198.39 50.3906 198.397 49.2232C198.405 48.0549 198.408 46.9114 198.408 45.795C198.408 44.6962 198.408 43.8248 198.408 43.1768C198.408 42.5287 198.402 41.5348 198.389 40.1899C197.05 40.1826 195.967 40.1847 195.135 40.1941C194.303 40.2055 193.848 40.2096 193.765 40.2096V38.9021C194.413 38.9021 195.198 38.9052 196.127 38.9125C197.055 38.9198 198.042 38.9239 199.093 38.9239C200.613 38.9239 201.885 38.9198 202.907 38.9125C203.929 38.9052 204.48 38.9021 204.562 38.9021V40.2096H204.563Z" fill="#041E41"/>
<path d="M211.846 46.4086H205.016C205.02 47.0785 205.162 47.6912 205.44 48.2489C205.717 48.8066 206.143 49.2667 206.716 49.6343C207.08 49.867 207.495 50.0435 207.961 50.1588C208.428 50.2751 208.989 50.3343 209.641 50.3343C210 50.3343 210.33 50.325 210.629 50.3084C210.928 50.2918 211.111 50.2793 211.182 50.2751L211.012 51.5224C210.962 51.5297 210.794 51.5411 210.513 51.5567C210.227 51.5733 209.892 51.5816 209.509 51.5816C208.501 51.5816 207.623 51.4508 206.876 51.1901C206.129 50.9273 205.516 50.5659 205.037 50.1048C204.629 49.7195 204.279 49.2272 203.994 48.629C203.709 48.0287 203.563 47.363 203.563 46.6309C203.563 45.9122 203.671 45.262 203.886 44.6815C204.099 44.1009 204.418 43.5609 204.848 43.0624C205.222 42.6345 205.682 42.3032 206.234 42.0675C206.786 41.8348 207.358 41.7185 207.949 41.7185C208.536 41.7185 209.057 41.8068 209.511 41.9844C209.965 42.1599 210.358 42.4299 210.69 42.7893C211.066 43.1933 211.348 43.6897 211.543 44.2806C211.737 44.8736 211.839 45.5819 211.846 46.4086ZM210.376 45.3431C210.274 44.5589 210.011 43.942 209.579 43.4965C209.148 43.051 208.58 42.8277 207.874 42.8277C207.17 42.8277 206.582 43.0541 206.11 43.5059C205.637 43.9576 205.31 44.5693 205.128 45.3431H210.376Z" fill="#041E41"/>
<path d="M219.974 50.3147L219.861 51.5828C219.811 51.5828 219.731 51.5828 219.619 51.5828C219.511 51.5828 219.417 51.5828 219.343 51.5828C218.53 51.5828 217.769 51.507 217.065 51.3512C216.359 51.1964 215.725 50.968 215.166 50.6647C214.402 50.2493 213.807 49.6957 213.378 49.0092C212.95 48.3217 212.737 47.5553 212.737 46.7099C212.737 45.9528 212.932 45.259 213.322 44.6234C213.715 43.9899 214.224 43.4717 214.856 43.0656C215.423 42.7011 216.103 42.4217 216.895 42.2285C217.687 42.0364 218.506 41.9419 219.349 41.9419C219.419 41.9419 219.49 41.9419 219.563 41.9419C219.636 41.9419 219.695 41.9419 219.738 41.9419L219.814 43.2089C219.768 43.2089 219.72 43.2089 219.667 43.2089C219.615 43.2089 219.564 43.2089 219.52 43.2089C218.819 43.2089 218.22 43.2525 217.726 43.3377C217.231 43.4218 216.748 43.562 216.281 43.7573C215.654 44.0086 215.159 44.4085 214.793 44.9495C214.426 45.4927 214.244 46.0722 214.244 46.6902C214.244 47.4286 214.415 48.0496 214.76 48.5492C215.102 49.0508 215.559 49.4371 216.126 49.7082C216.568 49.9232 217.065 50.0769 217.62 50.1714C218.175 50.2659 218.762 50.3137 219.377 50.3137C219.48 50.3137 219.593 50.3137 219.718 50.3137C219.845 50.3147 219.93 50.3147 219.974 50.3147Z" fill="#041E41"/>
<path d="M229.663 51.5413H228.174C228.181 51.3512 228.188 50.7842 228.199 49.8339C228.207 48.8857 228.214 48.2584 228.214 47.9562C228.214 47.6291 228.212 47.1451 228.208 46.5054C228.207 45.8656 228.201 45.3983 228.193 45.1012C228.174 44.3753 228.038 43.856 227.779 43.5403C227.517 43.2246 227.07 43.0667 226.433 43.0667C226.073 43.0667 225.612 43.1747 225.049 43.3876C224.488 43.6005 223.893 43.8893 223.27 44.2559L223.308 51.5413H221.822C221.826 51.2952 221.838 50.3044 221.848 48.5669C221.857 46.8294 221.863 45.3993 221.863 44.2766C221.863 43.5455 221.86 42.6233 221.858 41.5099C221.852 40.3976 221.841 39.1192 221.822 37.6746H223.308L223.27 43.0387L223.279 43.0491C224.182 42.5506 224.917 42.2037 225.492 42.0095C226.068 41.8163 226.558 41.7208 226.968 41.7208C227.773 41.7208 228.422 41.9742 228.91 42.481C229.396 42.9888 229.642 43.6847 229.642 44.5685C229.642 45.365 229.639 46.0494 229.634 46.6258C229.627 47.2043 229.621 47.6717 229.621 48.032C229.621 48.6064 229.626 49.2658 229.636 50.0094C229.649 50.7541 229.656 51.265 229.663 51.5413Z" fill="#041E41"/>
<path d="M239.616 51.5412H238.127C238.134 51.3657 238.143 50.7831 238.151 49.7923C238.16 48.8015 238.167 48.1909 238.167 47.9562C238.167 47.629 238.166 47.1451 238.161 46.5053C238.16 45.8656 238.155 45.3982 238.146 45.1012C238.127 44.3752 237.989 43.856 237.731 43.5402C237.472 43.2245 237.025 43.0667 236.388 43.0667C236.005 43.0667 235.527 43.1799 234.961 43.4073C234.394 43.6327 233.822 43.9224 233.243 44.2745C233.243 44.3441 233.238 44.72 233.231 45.4003C233.224 46.0805 233.221 46.7037 233.221 47.2645C233.221 47.9956 233.228 48.8794 233.243 49.9128C233.253 50.9482 233.261 51.4904 233.261 51.5402H231.772C231.772 51.4966 231.781 51.1113 231.793 50.3843C231.806 49.6563 231.814 48.5741 231.814 47.1388C231.814 46.4773 231.812 45.7025 231.808 44.8156C231.806 43.9276 231.793 42.9815 231.772 41.9814H233.243V43.0677L233.251 43.0874C234.13 42.5785 234.865 42.2234 235.455 42.0219C236.04 41.8225 236.53 41.7207 236.921 41.7207C237.728 41.7207 238.375 41.9741 238.863 42.4809C239.349 42.9888 239.594 43.6846 239.594 44.5684C239.594 45.365 239.593 46.0494 239.586 46.6258C239.58 47.2043 239.574 47.6716 239.574 48.032C239.574 48.6063 239.582 49.3239 239.594 50.1828C239.607 51.0459 239.616 51.4976 239.616 51.5412Z" fill="#041E41"/>
<path d="M243.394 40.1515H241.745V38.521H243.394V40.1515ZM243.313 51.5413H241.824C241.831 51.4406 241.84 50.8206 241.848 49.6802C241.861 48.5399 241.865 47.599 241.865 46.8543C241.865 46.2073 241.863 45.4928 241.861 44.716C241.857 43.9381 241.846 43.0262 241.824 41.9804H243.313C243.301 42.8871 243.293 43.7356 243.285 44.5249C243.276 45.3162 243.274 46.0204 243.274 46.6383C243.274 48.1058 243.281 49.2835 243.294 50.1704C243.304 51.0615 243.313 51.5174 243.313 51.5413Z" fill="#041E41"/>
<path d="M252.522 50.3147L252.408 51.5828C252.356 51.5828 252.278 51.5828 252.168 51.5828C252.058 51.5828 251.965 51.5828 251.889 51.5828C251.076 51.5828 250.316 51.507 249.611 51.3512C248.906 51.1964 248.271 50.968 247.712 50.6647C246.95 50.2493 246.355 49.6957 245.925 49.0092C245.497 48.3217 245.283 47.5553 245.283 46.7099C245.283 45.9528 245.48 45.259 245.87 44.6234C246.261 43.9899 246.771 43.4717 247.402 43.0656C247.971 42.7011 248.652 42.4217 249.443 42.2285C250.233 42.0364 251.052 41.9419 251.899 41.9419C251.966 41.9419 252.037 41.9419 252.111 41.9419C252.182 41.9419 252.242 41.9419 252.284 41.9419L252.359 43.2089C252.315 43.2089 252.268 43.2089 252.214 43.2089C252.161 43.2089 252.111 43.2089 252.066 43.2089C251.366 43.2089 250.765 43.2525 250.273 43.3377C249.777 43.4218 249.294 43.562 248.827 43.7573C248.203 44.0086 247.706 44.4085 247.341 44.9495C246.972 45.4927 246.791 46.0722 246.791 46.6902C246.791 47.4286 246.962 48.0496 247.305 48.5492C247.648 49.0508 248.106 49.4371 248.673 49.7082C249.113 49.9232 249.612 50.0769 250.167 50.1714C250.722 50.2659 251.307 50.3137 251.924 50.3137C252.025 50.3137 252.138 50.3137 252.265 50.3137C252.392 50.3147 252.475 50.3147 252.522 50.3147Z" fill="#041E41"/>
<path d="M261.586 46.1439C261.586 47.7059 261.583 48.9761 261.576 49.9565C261.571 50.9379 261.565 51.4655 261.565 51.5413C261.502 51.5486 261.208 51.5776 260.688 51.6275C260.166 51.6774 259.49 51.7023 258.665 51.7023C258.15 51.7023 257.63 51.6545 257.107 51.56C256.585 51.4644 256.134 51.3294 255.757 51.1518C255.252 50.9182 254.844 50.5993 254.534 50.1943C254.222 49.7882 254.067 49.3032 254.067 48.7351C254.067 48.1359 254.251 47.6156 254.618 47.1763C254.987 46.7359 255.501 46.3797 256.155 46.1086C256.566 45.9394 257.112 45.7856 257.796 45.6506C258.482 45.5146 259.262 45.4128 260.139 45.3422C260.099 44.851 259.976 44.4511 259.767 44.1364C259.56 43.8217 259.254 43.5829 258.85 43.4198C258.57 43.3066 258.261 43.2256 257.922 43.1799C257.578 43.1332 257.183 43.1093 256.729 43.1093C256.443 43.1093 256.202 43.1145 256.002 43.127C255.804 43.1394 255.533 43.1529 255.191 43.1695L255.342 41.9222C255.438 41.916 255.626 41.9046 255.905 41.888C256.187 41.8703 256.57 41.863 257.055 41.863C257.8 41.863 258.462 41.9399 259.046 42.0957C259.628 42.2483 260.113 42.4976 260.499 42.8445C260.857 43.1716 261.128 43.5756 261.312 44.0575C261.493 44.5352 261.586 45.2331 261.586 46.1439ZM260.139 48.4288C260.139 48.2127 260.139 47.9406 260.139 47.6093C260.139 47.2822 260.135 46.9 260.129 46.469C259.851 46.4815 259.367 46.5376 258.673 46.6352C257.98 46.7338 257.398 46.8741 256.925 47.0589C256.573 47.1918 256.259 47.3912 255.986 47.6582C255.712 47.923 255.575 48.2532 255.575 48.6448C255.575 49.0768 255.692 49.4237 255.924 49.6864C256.159 49.9513 256.476 50.1507 256.881 50.2909C257.189 50.3989 257.532 50.4768 257.909 50.5235C258.284 50.5723 258.679 50.5952 259.098 50.5952C259.224 50.5952 259.378 50.5921 259.561 50.5848C259.745 50.5786 259.935 50.5723 260.14 50.5651C260.14 50.5214 260.14 50.3127 260.14 49.9378C260.14 49.5629 260.139 49.0633 260.139 48.4288Z" fill="#041E41"/>
<path d="M265.891 51.5413H264.401C264.409 51.4655 264.418 50.5443 264.427 48.7746C264.439 47.007 264.443 45.5374 264.443 44.3722C264.443 43.6213 264.441 42.6731 264.439 41.5297C264.434 40.3852 264.423 39.1005 264.401 37.6746H265.891C265.877 38.6466 265.866 39.7704 265.862 41.0467C265.855 42.3231 265.851 43.4011 265.851 44.2766C265.851 46.1876 265.856 47.8596 265.872 49.2908C265.883 50.7219 265.891 51.4728 265.891 51.5413Z" fill="#041E41"/>
<path d="M283.141 50.3947C283.135 50.4518 283.117 50.6096 283.089 50.8703C283.061 51.131 283.032 51.4145 283.008 51.723C282.958 51.723 282.903 51.723 282.842 51.723C282.783 51.723 282.728 51.723 282.676 51.723C281.14 51.723 279.773 51.5288 278.575 51.1403C277.38 50.7509 276.395 50.189 275.63 49.4496C275.093 48.9386 274.669 48.3269 274.359 47.6124C274.044 46.8989 273.89 46.0847 273.89 45.1697C273.89 44.3493 274.044 43.5994 274.352 42.9223C274.661 42.2431 275.065 41.6501 275.562 41.1464C276.287 40.4142 277.262 39.8326 278.483 39.4037C279.708 38.9737 281.015 38.7598 282.408 38.7598C282.477 38.7598 282.557 38.7598 282.645 38.7598C282.731 38.7598 282.797 38.7598 282.834 38.7598C282.84 38.8719 282.854 39.0537 282.87 39.3019C282.891 39.5501 282.912 39.8181 282.937 40.1068C282.872 40.1068 282.819 40.1068 282.776 40.1068C282.731 40.1068 282.678 40.1068 282.614 40.1068C281.828 40.1068 281.009 40.195 280.163 40.3685C279.317 40.5419 278.587 40.8036 277.977 41.1495C277.181 41.6044 276.568 42.188 276.141 42.8994C275.712 43.6098 275.497 44.3763 275.497 45.1988C275.497 46.0504 275.689 46.8262 276.074 47.5251C276.459 48.2231 277.068 48.8088 277.896 49.2834C278.579 49.6739 279.34 49.9585 280.182 50.135C281.025 50.3126 281.861 50.4009 282.693 50.4009C282.731 50.4009 282.79 50.4009 282.872 50.4009C282.958 50.404 283.047 50.4019 283.141 50.3947Z" fill="#041E41"/>
<path d="M293.861 46.7513C293.861 47.4825 293.73 48.1825 293.468 48.8513C293.209 49.5201 292.831 50.0903 292.341 50.5618C291.925 50.9595 291.463 51.2628 290.957 51.4705C290.448 51.6782 289.876 51.7821 289.231 51.7821C288.626 51.7821 288.062 51.6793 287.531 51.4747C287.002 51.2701 286.53 50.9699 286.115 50.5722C285.634 50.1121 285.266 49.545 285.003 48.8679C284.743 48.1949 284.612 47.4814 284.612 46.7306C284.612 46.0067 284.722 45.3389 284.947 44.7303C285.17 44.1217 285.52 43.5765 285.991 43.0904C286.414 42.6491 286.904 42.3084 287.465 42.0737C288.027 41.8359 288.618 41.7185 289.242 41.7185C289.895 41.7185 290.489 41.8276 291.022 42.0436C291.554 42.2627 292.027 42.5878 292.443 43.0229C292.923 43.5204 293.279 44.0802 293.51 44.7023C293.744 45.3233 293.861 46.0077 293.861 46.7513ZM292.353 46.8178C292.353 46.2269 292.258 45.6505 292.064 45.0917C291.872 44.5299 291.575 44.0584 291.17 43.6741C290.923 43.4352 290.633 43.2504 290.296 43.1226C289.959 42.9928 289.608 42.9274 289.242 42.9274C288.806 42.9274 288.428 42.997 288.103 43.1351C287.785 43.2743 287.481 43.4924 287.198 43.7873C286.862 44.1269 286.6 44.561 286.406 45.0917C286.213 45.6193 286.118 46.1666 286.118 46.7326C286.118 47.3745 286.215 47.9664 286.412 48.5034C286.607 49.0424 286.923 49.5056 287.359 49.8971C287.604 50.1173 287.888 50.2855 288.209 50.4018C288.532 50.5171 288.872 50.5753 289.23 50.5753C289.629 50.5753 289.999 50.5078 290.342 50.3686C290.686 50.2305 290.986 50.03 291.246 49.7642C291.606 49.3986 291.881 48.9593 292.069 48.4421C292.258 47.9259 292.353 47.3838 292.353 46.8178Z" fill="#041E41"/>
<path d="M297.404 51.5413H295.917C295.921 51.4655 295.932 50.5443 295.94 48.7746C295.948 47.007 295.954 45.5374 295.954 44.3722C295.954 43.6213 295.954 42.6731 295.949 41.5297C295.947 40.3852 295.935 39.1005 295.917 37.6746H297.404C297.389 38.6466 297.381 39.7704 297.373 41.0467C297.366 42.3231 297.364 43.4011 297.364 44.2766C297.364 46.1876 297.369 47.8596 297.383 49.2908C297.396 50.7219 297.404 51.4728 297.404 51.5413Z" fill="#041E41"/>
<path d="M301.917 51.5413H300.428C300.436 51.4655 300.443 50.5443 300.455 48.7746C300.464 47.007 300.468 45.5374 300.468 44.3722C300.468 43.6213 300.466 42.6731 300.464 41.5297C300.463 40.3852 300.45 39.1005 300.428 37.6746H301.917C301.903 38.6466 301.894 39.7704 301.888 41.0467C301.88 42.3231 301.877 43.4011 301.877 44.2766C301.877 46.1876 301.884 47.8596 301.898 49.2908C301.911 50.7219 301.917 51.4728 301.917 51.5413Z" fill="#041E41"/>
<path d="M312.22 46.4086H305.39C305.396 47.0785 305.538 47.6912 305.815 48.2489C306.093 48.8066 306.517 49.2667 307.093 49.6343C307.456 49.867 307.871 50.0435 308.338 50.1588C308.803 50.2751 309.364 50.3343 310.018 50.3343C310.377 50.3343 310.704 50.325 311.005 50.3084C311.304 50.2907 311.488 50.2793 311.558 50.2751L311.387 51.5224C311.336 51.5297 311.169 51.5411 310.887 51.5567C310.603 51.5733 310.269 51.5816 309.883 51.5816C308.874 51.5816 307.997 51.4508 307.251 51.1901C306.503 50.9273 305.89 50.5659 305.414 50.1048C305.003 49.7195 304.655 49.2272 304.366 48.629C304.081 48.0287 303.938 47.363 303.938 46.6309C303.938 45.9122 304.045 45.262 304.258 44.6815C304.473 44.1009 304.793 43.5609 305.225 43.0624C305.596 42.6345 306.056 42.3032 306.608 42.0675C307.16 41.8348 307.731 41.7185 308.324 41.7185C308.91 41.7185 309.431 41.8068 309.884 41.9844C310.338 42.1599 310.733 42.4299 311.067 42.7893C311.439 43.1933 311.723 43.6897 311.918 44.2806C312.112 44.8736 312.214 45.5819 312.22 46.4086ZM310.753 45.3431C310.651 44.5589 310.386 43.942 309.956 43.4965C309.523 43.051 308.956 42.8277 308.25 42.8277C307.547 42.8277 306.958 43.0541 306.487 43.5059C306.016 43.9576 305.688 44.5693 305.506 45.3431H310.753Z" fill="#041E41"/>
<path d="M321.295 41.8817C321.295 42.0198 321.293 42.645 321.285 43.7552C321.279 44.8665 321.274 45.9237 321.274 46.9259C321.274 47.6061 321.279 48.302 321.285 49.0082C321.293 49.7154 321.295 50.3614 321.295 50.9472C321.295 52.0262 321.111 52.8726 320.741 53.4833C320.371 54.0961 319.843 54.5852 319.162 54.9497C318.623 55.2281 317.969 55.4472 317.198 55.6092C316.425 55.7681 315.488 55.8491 314.388 55.8491L314.237 54.6413C314.974 54.6288 315.634 54.5894 316.22 54.5239C316.804 54.4585 317.337 54.337 317.816 54.1605C318.553 53.8842 319.064 53.5186 319.353 53.0627C319.643 52.6068 319.794 52.0532 319.807 51.4C319.731 51.4 319.656 51.4 319.583 51.4C319.505 51.4 319.43 51.4 319.353 51.4C318.608 51.4 317.837 51.3096 317.046 51.13C316.256 50.9503 315.577 50.6657 315.019 50.2742C314.467 49.9014 314.016 49.4153 313.67 48.814C313.325 48.2147 313.152 47.4722 313.152 46.5884C313.152 45.7035 313.393 44.9236 313.879 44.2475C314.367 43.5724 315.015 43.0365 315.828 42.6377C316.407 42.3542 317.04 42.1569 317.724 42.0457C318.409 41.9357 319.237 41.8806 320.208 41.8806C320.385 41.8806 320.56 41.8806 320.732 41.8806C320.906 41.8817 321.092 41.8817 321.295 41.8817ZM319.83 46.9134C319.83 46.4617 319.826 45.8946 319.825 45.2144C319.822 44.5352 319.816 43.8248 319.807 43.0884C319.769 43.0884 319.728 43.0884 319.685 43.0884C319.641 43.0884 319.599 43.0884 319.56 43.0884C318.975 43.0884 318.464 43.1248 318.025 43.2006C317.591 43.2764 317.127 43.4187 316.644 43.6254C316 43.9037 315.51 44.3098 315.169 44.8436C314.83 45.3805 314.66 45.985 314.66 46.658C314.66 47.3517 314.83 47.9426 315.163 48.4349C315.5 48.9262 315.953 49.3073 316.518 49.5784C316.9 49.7611 317.346 49.9086 317.849 50.0218C318.357 50.1361 318.892 50.1932 319.46 50.1932C319.528 50.1932 319.591 50.1932 319.649 50.1932C319.703 50.1932 319.756 50.1932 319.807 50.1932C319.807 50.1184 319.809 49.7653 319.818 49.1391C319.825 48.5128 319.83 47.7723 319.83 46.9134Z" fill="#041E41"/>
<path d="M331.446 46.4086H324.616C324.621 47.0785 324.763 47.6912 325.039 48.2489C325.317 48.8066 325.741 49.2667 326.315 49.6343C326.679 49.867 327.096 50.0435 327.562 50.1588C328.028 50.2751 328.587 50.3343 329.243 50.3343C329.6 50.3343 329.929 50.325 330.23 50.3084C330.526 50.2907 330.711 50.2793 330.782 50.2751L330.61 51.5224C330.561 51.5297 330.393 51.5411 330.11 51.5567C329.827 51.5733 329.491 51.5816 329.106 51.5816C328.1 51.5816 327.222 51.4508 326.475 51.1901C325.728 50.9273 325.115 50.5659 324.637 50.1048C324.226 49.7195 323.876 49.2272 323.592 48.629C323.303 48.0287 323.16 47.363 323.16 46.6309C323.16 45.9122 323.267 45.262 323.482 44.6815C323.696 44.1009 324.018 43.5609 324.447 43.0624C324.818 42.6345 325.28 42.3032 325.831 42.0675C326.385 41.8348 326.954 41.7185 327.549 41.7185C328.136 41.7185 328.656 41.8068 329.107 41.9844C329.562 42.1599 329.956 42.4299 330.29 42.7893C330.659 43.1933 330.947 43.6897 331.143 44.2806C331.338 44.8736 331.437 45.5819 331.446 46.4086ZM329.977 45.3431C329.876 44.5589 329.61 43.942 329.179 43.4965C328.747 43.051 328.181 42.8277 327.475 42.8277C326.773 42.8277 326.18 43.0541 325.708 43.5059C325.237 43.9587 324.91 44.5693 324.729 45.3431H329.977Z" fill="#041E41"/>
<path d="M28.8788 0C12.9304 0 0 12.9424 0 28.9081C0 33.6647 1.14748 38.1512 3.18097 42.1081C2.42775 39.5782 2.02313 36.9008 2.02313 34.1258C2.02313 18.668 14.5406 6.13888 29.9817 6.13888C33.0724 6.13888 36.0428 6.64154 38.8212 7.56793C38.5784 7.55962 38.3377 7.54923 38.0928 7.54923C26.7799 7.54923 17.6095 16.729 17.6095 28.0523C17.6095 31.1638 18.3046 34.1102 19.5434 36.7512C21.7242 27.7729 29.8043 21.1044 39.4437 21.1044C42.6143 21.1044 45.6158 21.8262 48.2946 23.1119C47.1357 22.6892 45.8814 22.4576 44.5762 22.4576C38.5815 22.4576 33.7188 27.3243 33.7188 33.3271C33.7188 39.3289 38.5815 44.1945 44.5762 44.1945C50.133 44.1945 55.3112 40.4204 57.3167 33.9627C57.6062 32.3218 57.7587 30.6321 57.7587 28.907C57.7587 12.9424 44.8273 0 28.8788 0Z" fill="#041E41"/>
<path d="M27.0614 39.4827C26.8072 40.7881 26.6723 42.1351 26.6723 43.5154C26.6723 48.5046 28.405 53.0877 31.2934 56.6987C21.1259 53.5415 13.3498 44.9465 11.3547 34.3086C11.0258 36.0596 10.8525 37.8646 10.8525 39.708C10.8525 45.0535 12.2936 50.0613 14.8065 54.3641C14.9704 54.4555 15.1353 54.5427 15.2982 54.6289C15.3906 54.6777 15.4829 54.7286 15.5742 54.7753C15.7879 54.8865 16.0017 54.9903 16.2164 55.0952C16.2714 55.1212 16.3233 55.1502 16.3783 55.1752C20.1641 56.9854 24.4023 58 28.8791 58C29.1416 58 29.403 57.9959 29.6624 57.9886C29.7184 57.9865 29.7755 57.9845 29.8315 57.9824C30.0639 57.9751 30.2953 57.9647 30.5246 57.9533C30.5495 57.9512 30.5733 57.9491 30.5982 57.9481C31.1502 57.9159 31.697 57.8681 32.2406 57.8048C32.9679 57.7207 33.6869 57.6095 34.3965 57.4735C40.7751 56.247 46.4087 52.934 50.567 48.2698C48.2046 49.5649 45.4947 50.3012 42.6125 50.3012C35.4859 50.3012 29.4072 45.7991 27.0614 39.4827Z" fill="#026937"/>
</g>
<defs>
<clipPath id="clip0_1002_636">
<rect width="332" height="58" fill="white"/>
</clipPath>
</defs>
</svg>
