<svg width="24" height="24" viewBox="0 0 24 24" fill="none" xmlns="http://www.w3.org/2000/svg">
<path d="M17.5748 7.84805C17.787 7.62508 18.0735 7.5 18.3721 7.5C18.6706 7.5 18.9571 7.62508 19.1693 7.84805C19.274 7.95754 19.3572 8.08806 19.414 8.23199C19.4708 8.37593 19.5 8.53041 19.5 8.68646C19.5 8.8425 19.4708 8.99699 19.414 9.14092C19.3572 9.28486 19.274 9.41537 19.1693 9.52486L12.798 16.1525C12.5854 16.3752 12.2987 16.5 12 16.5C11.7013 16.5 11.4146 16.3752 11.202 16.1525L4.83073 9.52486C4.72598 9.41537 4.6428 9.28486 4.58602 9.14092C4.52924 8.99699 4.5 8.8425 4.5 8.68646C4.5 8.53041 4.52924 8.37593 4.58602 8.23199C4.6428 8.08806 4.72598 7.95754 4.83073 7.84805C5.04289 7.62508 5.32939 7.5 5.62795 7.5C5.92651 7.5 6.21301 7.62508 6.42517 7.84805L12.0024 13.2834L17.5748 7.84805Z" fill="#002D62"/>
</svg>
