<svg width="32" height="32" viewBox="0 0 32 32" fill="none" xmlns="http://www.w3.org/2000/svg">
<path d="M5.5 8.5C5.5 7.70312 6.15625 7 7 7H25C25.7969 7 26.5 7.70312 26.5 8.5C26.5 9.34375 25.7969 10 25 10H7C6.15625 10 5.5 9.34375 5.5 8.5ZM5.5 16C5.5 15.2031 6.15625 14.5 7 14.5H25C25.7969 14.5 26.5 15.2031 26.5 16C26.5 16.8438 25.7969 17.5 25 17.5H7C6.15625 17.5 5.5 16.8438 5.5 16ZM26.5 23.5C26.5 24.3438 25.7969 25 25 25H7C6.15625 25 5.5 24.3438 5.5 23.5C5.5 22.7031 6.15625 22 7 22H25C25.7969 22 26.5 22.7031 26.5 23.5Z" fill="black"/>
</svg>
