<svg width="19" height="20" viewBox="0 0 19 20" fill="none" xmlns="http://www.w3.org/2000/svg">
<path d="M12.8571 8.64286C12.8571 5.88616 10.6138 3.64286 7.85714 3.64286C5.10045 3.64286 2.85714 5.88616 2.85714 8.64286C2.85714 11.3996 5.10045 13.6429 7.85714 13.6429C10.6138 13.6429 12.8571 11.3996 12.8571 8.64286ZM18.5714 17.9286C18.5714 18.7098 17.9241 19.3571 17.1429 19.3571C16.7634 19.3571 16.3951 19.2009 16.1384 18.933L12.3103 15.1161C11.0045 16.0201 9.44196 16.5 7.85714 16.5C3.51563 16.5 0 12.9844 0 8.64286C0 4.30134 3.51563 0.785713 7.85714 0.785713C12.1987 0.785713 15.7143 4.30134 15.7143 8.64286C15.7143 10.2277 15.2344 11.7902 14.3304 13.096L18.1585 16.9241C18.4152 17.1808 18.5714 17.5491 18.5714 17.9286Z" fill="#00703C"/>
</svg>
