<?xml version="1.0" encoding="UTF-8"?><svg id="Layer_2" xmlns="http://www.w3.org/2000/svg" viewBox="0 0 18.57 18.57"><defs><style>.cls-1{fill:#0075cb;stroke-width:0px;}</style></defs><g id="Layer_1-2"><path class="cls-1" d="M12.86,7.86c0-2.76-2.24-5-5-5S2.86,5.1,2.86,7.86s2.24,5,5,5,5-2.24,5-5ZM18.57,17.14c0,.78-.65,1.43-1.43,1.43-.38,0-.75-.16-1-.42l-3.83-3.82c-1.31.9-2.87,1.38-4.45,1.38C3.52,15.71,0,12.2,0,7.86S3.52,0,7.86,0s7.86,3.52,7.86,7.86c0,1.58-.48,3.15-1.38,4.45l3.83,3.83c.26.26.41.62.41,1Z"/></g></svg>