<svg width="239" height="27" viewBox="0 0 239 27" fill="none" xmlns="http://www.w3.org/2000/svg">
<path d="M39.124 7.548C35.644 7.548 33.652 10.068 33.652 13.86C33.652 17.772 35.908 19.908 39.148 19.908C42.196 19.908 44.044 18.228 44.044 15.42V15.348H38.74V12.636H46.9V22.5H44.308L44.116 20.484C43.156 21.828 41.164 22.764 38.788 22.764C33.868 22.764 30.436 19.188 30.436 13.788C30.436 8.46 33.916 4.668 39.196 4.668C43.204 4.668 46.3 6.996 46.804 10.572H43.564C43.012 8.508 41.236 7.548 39.124 7.548ZM56.2654 10.596V13.308H55.1854C53.0734 13.308 51.7534 14.436 51.7534 16.74V22.5H48.8254V10.668H51.5854L51.7534 12.396C52.2574 11.22 53.3854 10.428 54.9694 10.428C55.3774 10.428 55.7854 10.476 56.2654 10.596ZM62.1929 22.812C58.6649 22.812 56.1929 20.244 56.1929 16.572C56.1929 12.852 58.6169 10.284 62.0969 10.284C65.6489 10.284 67.9049 12.66 67.9049 16.356V17.244L58.9769 17.268C59.1929 19.356 60.2969 20.412 62.2409 20.412C63.8489 20.412 64.9049 19.788 65.2409 18.66H67.9529C67.4489 21.252 65.2889 22.812 62.1929 22.812ZM62.1209 12.684C60.3929 12.684 59.3369 13.62 59.0489 15.396H65.0009C65.0009 13.764 63.8729 12.684 62.1209 12.684ZM72.6991 22.812C70.1791 22.812 68.6431 21.348 68.6431 19.116C68.6431 16.932 70.2271 15.564 73.0351 15.348L76.5871 15.084V14.82C76.5871 13.212 75.6271 12.564 74.1391 12.564C72.4111 12.564 71.4511 13.284 71.4511 14.532H68.9551C68.9551 11.964 71.0671 10.284 74.2831 10.284C77.4751 10.284 79.4431 12.012 79.4431 15.3V22.5H76.8751L76.6591 20.748C76.1551 21.972 74.5471 22.812 72.6991 22.812ZM73.6591 20.604C75.4591 20.604 76.6111 19.524 76.6111 17.7V17.076L74.1391 17.268C72.3151 17.436 71.6191 18.036 71.6191 18.996C71.6191 20.076 72.3391 20.604 73.6591 20.604ZM85.2274 22.5H82.2994V13.092H80.0194V10.644H82.2994V6.948H85.2274V10.644H87.5314V13.092H85.2274V22.5ZM97.4044 4.956V19.668H104.748V22.5H94.3324V4.956H97.4044ZM109.382 22.812C106.862 22.812 105.326 21.348 105.326 19.116C105.326 16.932 106.91 15.564 109.718 15.348L113.27 15.084V14.82C113.27 13.212 112.31 12.564 110.822 12.564C109.094 12.564 108.134 13.284 108.134 14.532H105.638C105.638 11.964 107.75 10.284 110.966 10.284C114.158 10.284 116.126 12.012 116.126 15.3V22.5H113.558L113.342 20.748C112.838 21.972 111.23 22.812 109.382 22.812ZM110.342 20.604C112.142 20.604 113.294 19.524 113.294 17.7V17.076L110.822 17.268C108.998 17.436 108.302 18.036 108.302 18.996C108.302 20.076 109.022 20.604 110.342 20.604ZM120.995 22.5H118.091V4.644H120.995V15.612L125.603 10.644H129.275L124.763 15.348L129.179 22.5H125.819L122.723 17.508L120.995 19.308V22.5ZM134.762 22.812C131.234 22.812 128.762 20.244 128.762 16.572C128.762 12.852 131.186 10.284 134.666 10.284C138.218 10.284 140.474 12.66 140.474 16.356V17.244L131.546 17.268C131.762 19.356 132.866 20.412 134.81 20.412C136.418 20.412 137.474 19.788 137.81 18.66H140.522C140.018 21.252 137.858 22.812 134.762 22.812ZM134.69 12.684C132.962 12.684 131.906 13.62 131.618 15.396H137.57C137.57 13.764 136.442 12.684 134.69 12.684ZM140.945 18.9H143.729C143.753 19.932 144.521 20.58 145.865 20.58C147.233 20.58 147.977 20.028 147.977 19.164C147.977 18.564 147.665 18.132 146.609 17.892L144.473 17.388C142.337 16.908 141.305 15.9 141.305 14.004C141.305 11.676 143.273 10.284 146.009 10.284C148.673 10.284 150.473 11.82 150.497 14.124H147.713C147.689 13.116 147.017 12.468 145.889 12.468C144.737 12.468 144.065 12.996 144.065 13.884C144.065 14.556 144.593 14.988 145.601 15.228L147.737 15.732C149.729 16.188 150.737 17.1 150.737 18.924C150.737 21.324 148.697 22.812 145.769 22.812C142.817 22.812 140.945 21.228 140.945 18.9ZM161.019 4.956V22.5H157.947V4.956H161.019ZM166.444 22.5H163.516V10.644H166.228L166.468 12.18C167.212 10.98 168.652 10.284 170.26 10.284C173.236 10.284 174.772 12.132 174.772 15.204V22.5H171.844V15.9C171.844 13.908 170.86 12.948 169.348 12.948C167.548 12.948 166.444 14.196 166.444 16.116V22.5ZM175.637 18.9H178.421C178.445 19.932 179.213 20.58 180.557 20.58C181.925 20.58 182.669 20.028 182.669 19.164C182.669 18.564 182.357 18.132 181.301 17.892L179.165 17.388C177.029 16.908 175.997 15.9 175.997 14.004C175.997 11.676 177.965 10.284 180.701 10.284C183.365 10.284 185.165 11.82 185.189 14.124H182.405C182.381 13.116 181.709 12.468 180.581 12.468C179.429 12.468 178.757 12.996 178.757 13.884C178.757 14.556 179.285 14.988 180.293 15.228L182.429 15.732C184.421 16.188 185.429 17.1 185.429 18.924C185.429 21.324 183.389 22.812 180.461 22.812C177.509 22.812 175.637 21.228 175.637 18.9ZM190.73 22.5H187.802V13.092H185.522V10.644H187.802V6.948H190.73V10.644H193.034V13.092H190.73V22.5ZM195.358 8.268C194.35 8.268 193.558 7.476 193.558 6.492C193.558 5.508 194.35 4.74 195.358 4.74C196.318 4.74 197.11 5.508 197.11 6.492C197.11 7.476 196.318 8.268 195.358 8.268ZM193.894 22.5V10.644H196.822V22.5H193.894ZM202.919 22.5H199.991V13.092H197.711V10.644H199.991V6.948H202.919V10.644H205.223V13.092H202.919V22.5ZM214.124 10.644H217.052V22.5H214.34L214.124 20.916C213.404 22.044 211.868 22.812 210.284 22.812C207.548 22.812 205.94 20.964 205.94 18.06V10.644H208.868V17.028C208.868 19.284 209.756 20.196 211.388 20.196C213.236 20.196 214.124 19.116 214.124 16.86V10.644ZM223.148 22.5H220.22V13.092H217.94V10.644H220.22V6.948H223.148V10.644H225.452V13.092H223.148V22.5ZM231.499 22.812C227.971 22.812 225.499 20.244 225.499 16.572C225.499 12.852 227.923 10.284 231.403 10.284C234.955 10.284 237.211 12.66 237.211 16.356V17.244L228.283 17.268C228.499 19.356 229.603 20.412 231.547 20.412C233.155 20.412 234.211 19.788 234.547 18.66H237.259C236.755 21.252 234.595 22.812 231.499 22.812ZM231.427 12.684C229.699 12.684 228.643 13.62 228.355 15.396H234.307C234.307 13.764 233.179 12.684 231.427 12.684Z" fill="currentColor"/>
<path d="M11.5 2C17.5751 2 22.5 6.92487 22.5 13C22.5 19.0751 17.5751 24 11.5 24C5.42487 24 0.5 19.0751 0.5 13C0.5 6.92487 5.42487 2 11.5 2ZM11.5 6C10.1156 6 8.76242 6.41062 7.61133 7.17969C6.4602 7.94884 5.56302 9.04223 5.0332 10.3213C4.50343 11.6003 4.36476 13.0075 4.63477 14.3652C4.90486 15.7231 5.57084 16.9712 6.5498 17.9502L11.5 13L16.4502 17.9502C17.4292 16.9712 18.0951 15.7231 18.3652 14.3652C18.6352 13.0075 18.4966 11.6003 17.9668 10.3213C17.437 9.04223 16.5398 7.94884 15.3887 7.17969C14.2376 6.41062 12.8844 6 11.5 6Z" fill="currentColor"/>
</svg>
