<?xml version="1.0" encoding="utf-8"?>
<!-- Generator: Adobe Illustrator 23.0.2, SVG Export Plug-In . SVG Version: 6.00 Build 0)  -->
<svg version="1.1" id="icon_small_tie" xmlns="http://www.w3.org/2000/svg" xmlns:xlink="http://www.w3.org/1999/xlink" x="0px"
	 y="0px" viewBox="0 0 18 41" style="enable-background:new 0 0 18 41;" xml:space="preserve">
<style type="text/css">
	.st0{fill:url(#Path_1_);}
	.st1{fill:url(#Path-2_1_);}
	.st2{fill:#FFFFFF;}
</style>
<g>
	<g id="Group" transform="translate(0.98 0.96)">
		
			<radialGradient id="Path_1_" cx="-119.3232" cy="50.9457" r="17.023" gradientTransform="matrix(2.035 0 0 -1.986 247.3283 112.5114)" gradientUnits="userSpaceOnUse">
			<stop  offset="0" style="stop-color:#4D4D4D"/>
			<stop  offset="0.826" style="stop-color:#000000"/>
			<stop  offset="1" style="stop-color:#000000"/>
		</radialGradient>
		<path id="Path" class="st0" d="M12.2,10c-0.4-1.5-1.1-3-1.8-4.4L8,4.9L5.7,5.6C4.9,7,4.3,8.5,3.9,10c-0.4,1.3-4.3,20.4-4.3,20.8
			c0,1,8,8.5,8.5,8.5s8.5-7.7,8.5-8.7C16.5,30.2,12.6,11.4,12.2,10z"/>
		
			<radialGradient id="Path-2_1_" cx="209.9505" cy="9.9215" r="15.347" gradientTransform="matrix(0.535 0 0 -0.523 -108.2657 6.2099)" gradientUnits="userSpaceOnUse">
			<stop  offset="0" style="stop-color:#4D4D4D"/>
			<stop  offset="1" style="stop-color:#000000"/>
		</radialGradient>
		<path id="Path-2" class="st1" d="M7.9,5.8c0.8,0.1,1.6,0,2.4-0.1c0,0,0.9-1.1,1.8-2c1.3-1.4,1.5-2.3,1.3-2.7
			c-0.1-0.2-0.4-0.8-0.8-0.9C11.1,0,9.6,0,8,0C6.5,0,5,0,3.5,0.1C3.2,0.3,2.9,0.6,2.7,0.9C2.5,1.3,2.4,2.3,4,3.6
			c0.7,0.6,1.2,1.3,1.8,2C6.1,5.9,6.6,5.7,7.9,5.8z"/>
	</g>
	<path id="Path-3" class="st2" d="M5.9,13.7l4.5,1.3v6l1.6-2.9l0.1,13.1l-1.6-7.3l-1.7,1.5L5.9,13.7z"/>
</g>
</svg>
