<svg width="14" height="14" viewBox="0 0 14 14" fill="none" xmlns="http://www.w3.org/2000/svg">
<path d="M13.8124 1V10.75C13.8124 10.8992 13.7531 11.0423 13.6476 11.1477C13.5421 11.2532 13.3991 11.3125 13.2499 11.3125C13.1007 11.3125 12.9576 11.2532 12.8521 11.1477C12.7466 11.0423 12.6874 10.8992 12.6874 10.75V2.3575L1.64738 13.3975C1.54075 13.4969 1.39972 13.551 1.25399 13.5484C1.10827 13.5458 0.969228 13.4868 0.866168 13.3837C0.763109 13.2807 0.704075 13.1416 0.701504 12.9959C0.698932 12.8502 0.753025 12.7091 0.852385 12.6025L11.8924 1.5625L3.49988 1.5625C3.3507 1.5625 3.20763 1.50324 3.10214 1.39775C2.99665 1.29226 2.93738 1.14918 2.93738 1C2.93738 0.850816 2.99665 0.707742 3.10214 0.602252C3.20763 0.496763 3.3507 0.4375 3.49988 0.4375L13.2499 0.4375C13.3991 0.4375 13.5421 0.496763 13.6476 0.602252C13.7531 0.707742 13.8124 0.850816 13.8124 1Z" fill="white"/>
</svg>
