<?xml version="1.0" encoding="utf-8"?>
<!-- Generator: Adobe Illustrator 25.4.1, SVG Export Plug-In . SVG Version: 6.00 Build 0)  -->
<svg version="1.1" id="Layer_1" xmlns="http://www.w3.org/2000/svg" xmlns:xlink="http://www.w3.org/1999/xlink" x="0px" y="0px"
	 viewBox="0 0 80.2 23.5" style="enable-background:new 0 0 80.2 23.5;" xml:space="preserve">
<style type="text/css">
	.st0{fill:none;stroke:#121212;stroke-width:1.13;stroke-miterlimit:10;}
	.st1{fill:none;stroke:#121212;stroke-width:1.13;stroke-miterlimit:10;stroke-dasharray:3.34,3.34;}
	.st2{fill:none;stroke:#121212;stroke-width:3;stroke-miterlimit:10;}
</style>
<g id="Layer_2_00000155852482692772852460000016322892144426130835_">
	<g id="Layer_1-2">
		<polyline class="st0" points="18.6,17 18.6,20.2 15.5,20.2 		"/>
		<line class="st1" x1="12.1" y1="20.2" x2="7.1" y2="20.2"/>
		<polyline class="st0" points="5.5,20.2 2.3,20.2 2.3,17 		"/>
		<line class="st1" x1="2.3" y1="13.7" x2="2.3" y2="8.7"/>
		<polyline class="st0" points="2.3,7 2.3,3.9 5.5,3.9 		"/>
		<line class="st1" x1="8.8" y1="3.9" x2="13.8" y2="3.9"/>
		<polyline class="st0" points="15.5,3.9 18.6,3.9 18.6,7 		"/>
		<line class="st1" x1="18.6" y1="10.4" x2="18.6" y2="15.4"/>
		<line class="st2" x1="25.2" y1="0" x2="25.2" y2="23.5"/>
		<polyline class="st0" points="48.2,17 48.2,20.2 45,20.2 		"/>
		<line class="st1" x1="41.7" y1="20.2" x2="36.7" y2="20.2"/>
		<polyline class="st0" points="35,20.2 31.9,20.2 31.9,17 		"/>
		<line class="st1" x1="31.9" y1="13.7" x2="31.9" y2="8.7"/>
		<polyline class="st0" points="31.9,7 31.9,3.9 35,3.9 		"/>
		<line class="st1" x1="38.4" y1="3.9" x2="43.4" y2="3.9"/>
		<polyline class="st0" points="45,3.9 48.2,3.9 48.2,7 		"/>
		<line class="st1" x1="48.2" y1="10.4" x2="48.2" y2="15.4"/>
		<polyline class="st0" points="77.8,17 77.8,20.2 74.6,20.2 		"/>
		<line class="st1" x1="71.3" y1="20.2" x2="66.2" y2="20.2"/>
		<polyline class="st0" points="64.6,20.2 61.4,20.2 61.4,17 		"/>
		<line class="st1" x1="61.4" y1="13.7" x2="61.4" y2="8.7"/>
		<polyline class="st0" points="61.4,7 61.4,3.9 64.6,3.9 		"/>
		<line class="st1" x1="67.9" y1="3.9" x2="72.9" y2="3.9"/>
		<polyline class="st0" points="74.6,3.9 77.8,3.9 77.8,7 		"/>
		<line class="st1" x1="77.8" y1="10.4" x2="77.8" y2="15.4"/>
		<line class="st2" x1="54.8" y1="0" x2="54.8" y2="23.5"/>
	</g>
</g>
</svg>
