<?xml version="1.0" encoding="utf-8"?>
<!-- Generator: Adobe Illustrator 25.4.1, SVG Export Plug-In . SVG Version: 6.00 Build 0)  -->
<svg version="1.1" id="Layer_1" xmlns="http://www.w3.org/2000/svg" xmlns:xlink="http://www.w3.org/1999/xlink" x="0px" y="0px"
	 viewBox="0 0 70.7 23.5" style="enable-background:new 0 0 70.7 23.5;" xml:space="preserve">
<style type="text/css">
	.st0{fill:none;stroke:#121212;stroke-width:1.2777;stroke-miterlimit:10;}
	.st1{fill:none;stroke:#121212;stroke-width:1.2777;stroke-miterlimit:10;stroke-dasharray:5.7284,5.7284;}
	.st2{fill:none;stroke:#121212;stroke-width:3;stroke-miterlimit:10;}
</style>
<g id="Layer_1-2">
	<polyline class="st0" points="27.1,16 27.1,20.2 24.1,20.2 	"/>
	<line class="st1" x1="19.1" y1="20.2" x2="11.8" y2="20.2"/>
	<polyline class="st0" points="9.3,20.2 6.2,20.2 6.2,16 	"/>
	<polyline class="st0" points="6.2,8 6.2,3.9 9.3,3.9 	"/>
	<line class="st1" x1="14.2" y1="3.9" x2="21.6" y2="3.9"/>
	<polyline class="st0" points="24.1,3.9 27.1,3.9 27.1,8 	"/>
	<polyline class="st0" points="64,16 64,20.2 60.9,20.2 	"/>
	<line class="st1" x1="56" y1="20.2" x2="48.6" y2="20.2"/>
	<polyline class="st0" points="46.2,20.2 43.1,20.2 43.1,16 	"/>
	<polyline class="st0" points="43.1,8 43.1,3.9 46.2,3.9 	"/>
	<line class="st1" x1="51.1" y1="3.9" x2="58.4" y2="3.9"/>
	<polyline class="st0" points="60.9,3.9 64,3.9 64,8 	"/>
	<line class="st2" x1="35.3" y1="0" x2="35.3" y2="23.5"/>
</g>
</svg>
