<svg xmlns="http://www.w3.org/2000/svg" viewBox="0 0 36 34.7"><defs><style>.a3b36919-1937-45c4-8794-3d3708a7ce92{fill:none;stroke:#121212;stroke-miterlimit:10;stroke-width:3.5px;}.b263fe8b-7997-4347-b288-0265554f80fa{fill:#121212;}</style></defs><title>Asset 22</title><g id="b9a8f6f1-243e-4b04-8eea-83fb757b9547" data-name="Layer 2"><g id="b604de09-a150-4446-885b-d45a456fd0e5" data-name="schedule"><line class="a3b36919-1937-45c4-8794-3d3708a7ce92" x1="8.87" y1="5.13" x2="8.87"/><line class="a3b36919-1937-45c4-8794-3d3708a7ce92" x1="27.33" y1="5.13" x2="27.33"/><rect class="b263fe8b-7997-4347-b288-0265554f80fa" x="6.29" y="9.82" width="4.84" height="4.84"/><rect class="b263fe8b-7997-4347-b288-0265554f80fa" x="6.29" y="16.68" width="4.84" height="4.84"/><rect class="b263fe8b-7997-4347-b288-0265554f80fa" x="6.29" y="23.54" width="4.84" height="4.84"/><rect class="b263fe8b-7997-4347-b288-0265554f80fa" x="12.55" y="9.82" width="4.84" height="4.84"/><rect class="b263fe8b-7997-4347-b288-0265554f80fa" x="12.55" y="16.68" width="4.84" height="4.84"/><rect class="b263fe8b-7997-4347-b288-0265554f80fa" x="12.55" y="23.54" width="4.84" height="4.84"/><rect class="b263fe8b-7997-4347-b288-0265554f80fa" x="18.81" y="9.82" width="4.84" height="4.84"/><rect class="b263fe8b-7997-4347-b288-0265554f80fa" x="18.81" y="16.68" width="4.84" height="4.84"/><rect class="b263fe8b-7997-4347-b288-0265554f80fa" x="18.81" y="23.54" width="4.84" height="4.84"/><rect class="b263fe8b-7997-4347-b288-0265554f80fa" x="25.06" y="9.82" width="4.84" height="4.84"/><rect class="b263fe8b-7997-4347-b288-0265554f80fa" x="25.06" y="16.68" width="4.84" height="4.84"/><rect class="b263fe8b-7997-4347-b288-0265554f80fa" x="25.06" y="23.54" width="4.84" height="4.84"/><path class="b263fe8b-7997-4347-b288-0265554f80fa" d="M32.4,7.18V31.1H3.6V7.18H32.4M36,3.58H0V34.7H36V3.58Z"/></g></g></svg>