<svg xmlns="http://www.w3.org/2000/svg" viewBox="0 0 23.6 36"><defs><style>.ea540b1f-e949-4623-a9cf-d5effa663ddb{fill:#121212;}</style></defs><title>Asset 11</title><g id="fb7ef043-3823-4ce2-b2eb-6ba3637a31b6" data-name="Layer 2"><g id="e1a3eb5d-ec5f-4448-94be-1dbd8f3c99ac" data-name="map"><path class="ea540b1f-e949-4623-a9cf-d5effa663ddb" d="M11.8,0A11.8,11.8,0,0,0,0,11.81,9.08,9.08,0,0,0,.07,13,12.47,12.47,0,0,0,.3,14.47l2.24,4.65L11.8,36l9.26-16.88,2.23-4.65A10.75,10.75,0,0,0,23.53,13a9.08,9.08,0,0,0,.07-1.17A11.79,11.79,0,0,0,11.8,0Zm0,13.18a3.86,3.86,0,1,1,3.86-3.86A3.86,3.86,0,0,1,11.8,13.18Z"/></g></g></svg>