<svg xmlns="http://www.w3.org/2000/svg" viewBox="0 0 35.2 25.67"><defs><style>.cls-1,.cls-3{fill:none;stroke-miterlimit:10;}.cls-1{stroke:#121212;stroke-width:3.2px;}.cls-2{fill:#121212;}.cls-3{stroke:#000;stroke-width:1.5px;}</style></defs><g id="Layer_2" data-name="Layer 2"><g id="newspaper"><path class="cls-1" d="M27.67,1.6H1.6V19.25A4.82,4.82,0,0,0,3,22.66a4.86,4.86,0,0,0,3.42,1.41H28.78a4.66,4.66,0,0,0,1.87-.38,4.73,4.73,0,0,0,1.54-1,5,5,0,0,0,1-1.53,4.75,4.75,0,0,0,.38-1.88V7.31H27.75Z"/><path class="cls-2" d="M26.17,6.79H33.6a0,0,0,0,1,0,0V22.5a0,0,0,0,1,0,0h-4a3.43,3.43,0,0,1-3.43-3.43V6.79A0,0,0,0,1,26.17,6.79Z"/><rect class="cls-2" x="4.83" y="5.18" width="11.81" height="6.98"/><line class="cls-3" x1="17.84" y1="5.97" x2="24.8" y2="5.97"/><line class="cls-3" x1="17.84" y1="8.67" x2="24.8" y2="8.67"/><line class="cls-3" x1="17.84" y1="11.38" x2="24.8" y2="11.38"/><line class="cls-3" x1="4.83" y1="14.08" x2="24.8" y2="14.08"/><line class="cls-3" x1="4.83" y1="16.79" x2="24.8" y2="16.79"/><line class="cls-3" x1="4.83" y1="19.49" x2="24.8" y2="19.49"/></g></g></svg>