<?xml version="1.0" encoding="UTF-8"?>
<svg xmlns="http://www.w3.org/2000/svg" xmlns:xlink="http://www.w3.org/1999/xlink" version="1.1" viewBox="0 0 206.8 32">
  <defs>
    <style>
      .cls-1 {
        fill: none;
      }

      .cls-2 {
        fill: #78be21;
      }

      .cls-3 {
        fill: #003865;
      }

      .cls-4 {
        clip-path: url(#clippath);
      }
    </style>
    <clipPath id="clippath">
      <rect class="cls-1" width="320" height="32"/>
    </clipPath>
  </defs>
  <!-- Generator: Adobe Illustrator 28.6.0, SVG Export Plug-In . SVG Version: 1.2.0 Build 709)  -->
  <g>
    <g id="Layer_1">
      <g class="cls-4">
        <g>
          <path class="cls-2" d="M50.8.9c-3.2,0-5.7,1.4-7.4,2.7,1.5,1.9,2.6,4.2,3.1,6.9.8-.6,1.7-1,2.6-1,3,0,4.4,2.3,4.4,5v12.5c0,.7.5,1.3,1.2,1.3h6.9c.7,0,1.2-.6,1.2-1.3v-12.1c0-7.6-4-14-12-14Z"/>
          <path class="cls-3" d="M0,2.8c0-.7.5-1.3,1.2-1.3h3c.5,0,.9.3,1.1.7l1.1,2.7C8.1,3.2,11.1.8,15.2.8s6.2,1.4,8.5,4.1c1.5-1.5,4.6-4.1,9-4.1,8.1,0,12,6.4,12,14v12.1c0,.7-.5,1.3-1.2,1.3h-6.9c-.7,0-1.2-.6-1.2-1.3v-12.5c0-2.7-1.4-5-4.4-5s-4.4,1.9-4.4,4.5v13c0,.7-.5,1.3-1.2,1.3h-6.2c-.7,0-1.2-.6-1.2-1.3v-12.5c0-2.7-1.2-5-4.1-5s-4.5,1.9-4.5,4.7v12.8c0,.7-.6,1.3-1.2,1.3H1.2c-.7,0-1.2-.6-1.2-1.3V2.8Z"/>
          <g>
            <path class="cls-3" d="M71.7,3.7c0-.2,0-.4.3-.4h1.8c.1,0,.2.1.3.2l1.3,5.1h0l2.3-5.3c0,0,.1-.2.3-.2h.3c.1,0,.2,0,.3.2l2.3,5.3h0l1.3-5.1c0-.1.1-.2.3-.2h1.8c.2,0,.3.2.3.4l-2.8,10.1c0,.1-.1.2-.3.2h-.2c-.1,0-.2,0-.3-.2l-2.7-6.1h0l-2.7,6.1c0,0-.1.2-.3.2h-.2c-.1,0-.2,0-.3-.2l-2.8-10.1Z"/>
            <path class="cls-3" d="M86,3.7c0-.1.1-.3.3-.3h6.2c.2,0,.3.1.3.3v1.6c0,.2-.1.3-.3.3h-4.2v1.9h3.4c.1,0,.3.1.3.3v1.6c0,.2-.1.3-.3.3h-3.4v2h4.2c.2,0,.3.1.3.3v1.6c0,.2-.1.3-.3.3h-6.2c-.2,0-.3-.1-.3-.3V3.7Z"/>
            <path class="cls-3" d="M94.8,3.7c0-.1.1-.3.3-.3h3.5c1.8,0,3.2,1.2,3.2,2.8s-1,2-1.7,2.4c.8.3,2,1.1,2,2.4s-1.5,2.9-3.3,2.9h-3.7c-.2,0-.3-.1-.3-.3V3.7ZM98.3,7.6c.6,0,1-.5,1-1.1s-.5-1-1-1h-1.2v2.1h1.2ZM98.5,11.7c.6,0,1.1-.5,1.1-1.1s-.6-1-1.2-1h-1.2v2.1h1.4Z"/>
            <path class="cls-3" d="M105.9,13.5l4.7-10.1c0,0,.1-.2.3-.2h.2c.1,0,.2,0,.3.2l4.7,10.1c0,.2,0,.4-.3.4h-1.7c-.3,0-.4,0-.5-.4l-.5-1.2h-4.1l-.5,1.2c0,.2-.2.4-.5.4h-1.6c-.2,0-.3-.2-.3-.4ZM112.1,10.3l-1.1-2.5h0l-1.1,2.5h2.3Z"/>
            <path class="cls-3" d="M121.8,3.2c1.5,0,2.6.5,3.6,1.4.1.1.1.3,0,.4l-1.2,1.2c-.1.1-.3.1-.4,0-.6-.5-1.3-.8-2-.8-1.7,0-2.9,1.4-2.9,3.1s1.3,3,3,3,1.5-.3,2-.7c.1,0,.3,0,.4,0l1.2,1.2c.1.1,0,.3,0,.4-1,1-2.3,1.5-3.6,1.5-3,0-5.4-2.4-5.4-5.4s2.4-5.4,5.4-5.4Z"/>
            <path class="cls-3" d="M131.8,3.2c1.5,0,2.6.5,3.6,1.4.1.1.1.3,0,.4l-1.2,1.2c-.1.1-.3.1-.4,0-.6-.5-1.3-.8-2-.8-1.7,0-2.9,1.4-2.9,3.1s1.3,3,3,3,1.5-.3,2-.7c.1,0,.3,0,.4,0l1.2,1.2c.1.1,0,.3,0,.4-1,1-2.3,1.5-3.6,1.5-3,0-5.4-2.4-5.4-5.4s2.4-5.4,5.4-5.4Z"/>
            <path class="cls-3" d="M137.3,3.7c0-.1.1-.3.3-.3h6.2c.2,0,.3.1.3.3v1.6c0,.2-.1.3-.3.3h-4.2v1.9h3.4c.1,0,.3.1.3.3v1.6c0,.2-.1.3-.3.3h-3.4v2h4.2c.2,0,.3.1.3.3v1.6c0,.2-.1.3-.3.3h-6.2c-.2,0-.3-.1-.3-.3V3.7Z"/>
            <path class="cls-3" d="M145.4,12.4l.7-1.2c.1-.2.4-.2.5,0,0,0,1.1.8,2.1.8s1-.4,1-.9-.5-1.1-1.5-1.5c-1.3-.5-2.9-1.5-2.9-3.3s1.2-3,3.5-3,2.8.8,3.2,1.1c.2.1.1.4,0,.5l-.8,1.2c-.1.2-.4.3-.5.2-.1,0-1.2-.9-2.1-.9s-.9.4-.9.8.5,1,1.6,1.5c1.2.5,3,1.4,3,3.4s-1.3,3.1-3.5,3.1-3-.8-3.4-1.2-.2-.2,0-.4Z"/>
            <path class="cls-3" d="M153.7,12.4l.7-1.2c.1-.2.4-.2.5,0,0,0,1.1.8,2.1.8s1-.4,1-.9-.5-1.1-1.5-1.5c-1.3-.5-2.9-1.5-2.9-3.3s1.2-3,3.5-3,2.8.8,3.2,1.1c.2.1.1.4,0,.5l-.8,1.2c-.1.2-.4.3-.5.2-.1,0-1.2-.9-2.1-.9s-.9.4-.9.8.5,1,1.6,1.5c1.2.5,3,1.4,3,3.4s-1.3,3.1-3.5,3.1-3-.8-3.4-1.2-.2-.2,0-.4Z"/>
            <path class="cls-3" d="M162.5,3.7c0-.1.1-.3.3-.3h1.8c.1,0,.3.1.3.3v9.9c0,.2-.1.3-.3.3h-1.8c-.2,0-.3-.1-.3-.3V3.7Z"/>
            <path class="cls-3" d="M167.4,3.7c0-.1.1-.3.3-.3h3.5c1.8,0,3.2,1.2,3.2,2.8s-1,2-1.7,2.4c.8.3,2,1.1,2,2.4s-1.5,2.9-3.3,2.9h-3.7c-.2,0-.3-.1-.3-.3V3.7ZM170.9,7.6c.6,0,1-.5,1-1.1s-.5-1-1-1h-1.2v2.1h1.2ZM171.1,11.7c.6,0,1.1-.5,1.1-1.1s-.6-1-1.2-1h-1.2v2.1h1.4Z"/>
            <path class="cls-3" d="M176.6,3.7c0-.1.1-.3.3-.3h1.8c.2,0,.3.1.3.3v8h3.6c.2,0,.3.1.3.3v1.6c0,.2-.1.3-.3.3h-5.6c-.2,0-.3-.1-.3-.3V3.7Z"/>
            <path class="cls-3" d="M184.3,3.7c0-.1.1-.3.3-.3h1.8c.1,0,.3.1.3.3v9.9c0,.2-.1.3-.3.3h-1.8c-.2,0-.3-.1-.3-.3V3.7Z"/>
            <path class="cls-3" d="M190.6,5.6h-2.1c-.2,0-.3-.1-.3-.3v-1.6c0-.1.1-.3.3-.3h6.7c.2,0,.3.1.3.3v1.6c0,.2-.1.3-.3.3h-2.1v8c0,.2-.1.3-.3.3h-1.8c-.2,0-.3-.1-.3-.3V5.6Z"/>
            <path class="cls-3" d="M199.3,8.8l-3.3-5c-.1-.2,0-.4.2-.4h1.9c.1,0,.2,0,.2.1l2.1,3.1,2.1-3.1c0,0,.1-.1.2-.1h1.9c.2,0,.4.2.2.4l-3.4,5v4.8c0,.2-.1.3-.3.3h-1.8c-.2,0-.3-.1-.3-.3v-4.8Z"/>
            <path class="cls-3" d="M77.2,17.2c1.5,0,2.6.5,3.6,1.4.1.1.1.3,0,.4l-1.2,1.2c-.1.1-.3.1-.4,0-.6-.5-1.3-.8-2-.8-1.7,0-2.9,1.4-2.9,3.1s1.3,3,3,3,1.5-.3,2-.7c.1,0,.3,0,.4,0l1.2,1.2c.1.1,0,.3,0,.4-1,1-2.3,1.5-3.6,1.5-3,0-5.4-2.4-5.4-5.4s2.4-5.4,5.4-5.4Z"/>
            <path class="cls-3" d="M87.3,17.2c3,0,5.4,2.4,5.4,5.4s-2.4,5.4-5.4,5.4-5.4-2.4-5.4-5.4,2.4-5.4,5.4-5.4ZM87.3,25.6c1.6,0,3-1.3,3-3s-1.4-3-3-3-3,1.4-3,3,1.4,3,3,3Z"/>
            <path class="cls-3" d="M94.5,17.5c0-.1.1-.3.3-.3h.4l6,5.8h0v-5.3c0-.1.1-.3.3-.3h1.8c.1,0,.3.1.3.3v10.1c0,.2-.1.3-.3.3h-.2s-.2,0-.2,0l-5.9-6h0v5.6c0,.2-.1.3-.3.3h-1.8c-.1,0-.3-.1-.3-.3v-10.1Z"/>
            <path class="cls-3" d="M106.1,17.7c0-.1.1-.3.3-.3h6.2c.2,0,.3.1.3.3v1.6c0,.2-.1.3-.3.3h-4.2v2.2h3.4c.1,0,.3.1.3.3v1.6c0,.2-.1.3-.3.3h-3.4v3.6c0,.2-.1.3-.3.3h-1.8c-.2,0-.3-.1-.3-.3v-9.9Z"/>
            <path class="cls-3" d="M114.5,17.7c0-.1.1-.3.3-.3h6.2c.2,0,.3.1.3.3v1.6c0,.2-.1.3-.3.3h-4.2v1.9h3.4c.1,0,.3.1.3.3v1.6c0,.2-.1.3-.3.3h-3.4v2h4.2c.2,0,.3.1.3.3v1.6c0,.2-.1.3-.3.3h-6.2c-.2,0-.3-.1-.3-.3v-9.9Z"/>
            <path class="cls-3" d="M123.3,17.7c0-.1.1-.3.3-.3h4.5c1.8,0,3.3,1.5,3.3,3.2s-.9,2.5-2.2,3l2.1,3.8c.1.2,0,.4-.3.4h-2c-.1,0-.2,0-.2-.1l-2-4h-1v3.8c0,.2-.1.3-.3.3h-1.8c-.2,0-.3-.1-.3-.3v-9.9ZM127.9,21.9c.6,0,1.1-.6,1.1-1.2s-.5-1.1-1.1-1.1h-2.2v2.3h2.2Z"/>
            <path class="cls-3" d="M133.4,17.7c0-.1.1-.3.3-.3h6.2c.2,0,.3.1.3.3v1.6c0,.2-.1.3-.3.3h-4.2v1.9h3.4c.1,0,.3.1.3.3v1.6c0,.2-.1.3-.3.3h-3.4v2h4.2c.2,0,.3.1.3.3v1.6c0,.2-.1.3-.3.3h-6.2c-.2,0-.3-.1-.3-.3v-9.9Z"/>
            <path class="cls-3" d="M142.1,17.5c0-.1.1-.3.3-.3h.4l6,5.8h0v-5.3c0-.1.1-.3.3-.3h1.8c.1,0,.3.1.3.3v10.1c0,.2-.1.3-.3.3h-.2s-.2,0-.2,0l-5.9-6h0v5.6c0,.2-.1.3-.3.3h-1.8c-.1,0-.3-.1-.3-.3v-10.1Z"/>
            <path class="cls-3" d="M158.4,17.2c1.5,0,2.6.5,3.6,1.4.1.1.1.3,0,.4l-1.2,1.2c-.1.1-.3.1-.4,0-.6-.5-1.3-.8-2-.8-1.7,0-2.9,1.4-2.9,3.1s1.3,3,3,3,1.5-.3,2-.7c.1,0,.3,0,.4,0l1.2,1.2c.1.1,0,.3,0,.4-1,1-2.3,1.5-3.6,1.5-3,0-5.4-2.4-5.4-5.4s2.4-5.4,5.4-5.4Z"/>
            <path class="cls-3" d="M163.8,17.7c0-.1.1-.3.3-.3h6.2c.2,0,.3.1.3.3v1.6c0,.2-.1.3-.3.3h-4.2v1.9h3.4c.2,0,.3.1.3.3v1.6c0,.2-.1.3-.3.3h-3.4v2h4.2c.2,0,.3.1.3.3v1.6c0,.2-.1.3-.3.3h-6.2c-.2,0-.3-.1-.3-.3v-9.9Z"/>
          </g>
        </g>
      </g>
    </g>
  </g>
</svg>