<?xml version="1.0" encoding="UTF-8"?>
<svg xmlns="http://www.w3.org/2000/svg" xmlns:xlink="http://www.w3.org/1999/xlink" version="1.1" viewBox="0 0 206.8 32">
  <defs>
    <style>
      .cls-1 {
        fill: none;
      }

      .cls-2 {
        fill: #78be21;
      }

      .cls-3 {
        font-family: BrandonGrotesque-Black, 'Brandon Grotesque';
        font-size: 15px;
        font-weight: 800;
      }

      .cls-3, .cls-4 {
        fill: #003865;
      }

      .cls-5 {
        clip-path: url(#clippath);
      }
    </style>
    <clipPath id="clippath">
      <rect class="cls-1" width="320" height="32"/>
    </clipPath>
  </defs>
  <!-- Generator: Adobe Illustrator 28.6.0, SVG Export Plug-In . SVG Version: 1.2.0 Build 709)  -->
  <g>
    <g id="Layer_1">
      <g class="cls-5">
        <g>
          <path class="cls-2" d="M50.8.9c-3.2,0-5.7,1.4-7.4,2.7,1.5,1.9,2.6,4.2,3.1,6.9.8-.6,1.7-1,2.6-1,3,0,4.4,2.3,4.4,5v12.5c0,.7.5,1.3,1.2,1.3h6.9c.7,0,1.2-.6,1.2-1.3v-12.1c0-7.6-4-14-12-14Z"/>
          <path class="cls-4" d="M0,2.8c0-.7.5-1.3,1.2-1.3h3c.5,0,.9.3,1.1.7l1.1,2.7C8.1,3.2,11.1.8,15.2.8s6.2,1.4,8.5,4.1c1.5-1.5,4.6-4.1,9-4.1,8.1,0,12,6.4,12,14v12.1c0,.7-.5,1.3-1.2,1.3h-6.9c-.7,0-1.2-.6-1.2-1.3v-12.5c0-2.7-1.4-5-4.4-5s-4.4,1.9-4.4,4.5v13c0,.7-.5,1.3-1.2,1.3h-6.2c-.7,0-1.2-.6-1.2-1.3v-12.5c0-2.7-1.2-5-4.1-5s-4.5,1.9-4.5,4.7v12.8c0,.7-.6,1.3-1.2,1.3H1.2c-.7,0-1.2-.6-1.2-1.3V2.8Z"/>
          <text class="cls-3" transform="translate(71.3 13.9)"><tspan x="0" y="0">ANOTHER</tspan><tspan x="0" y="14">MICROSITE</tspan></text>
        </g>
      </g>
    </g>
  </g>
</svg>