<?xml version="1.0" encoding="UTF-8"?>
<svg id="Layer_2" xmlns="http://www.w3.org/2000/svg" version="1.1" viewBox="0 0 460 197.4">
  <!-- Generator: Adobe Illustrator 30.0.0, SVG Export Plug-In . SVG Version: 2.1.1 Build 123)  -->
  <defs>
    <style>
      .st0 {
        fill: #fff;
      }
    </style>
  </defs>
  <g id="Layer_1-2">
    <polygon class="st0" points="99.5 23.3 121.1 89.8 191 89.8 134.4 130.9 156 197.4 99.5 156.3 42.9 197.4 64.5 130.9 8 89.8 77.9 89.8 99.5 23.3"/>
    <path class="st0" d="M240.9,110.5h-15.5v14.4h17.3v4.3h-22.4v-39.9h21.5v4.3h-16.4v12.6h15.5v4.3Z"/>
    <path class="st0" d="M273.7,87.2v34.6c0,2.5,0,5.4.2,7.4h-4.7l-.2-5h-.1c-1.6,3.2-5.1,5.6-9.8,5.6-6.9,0-12.2-5.9-12.2-14.6,0-9.5,5.9-15.4,12.8-15.4s7.3,2.1,8.6,4.4h.1v-17.1h5.2,0ZM268.5,112.2c0-.7,0-1.5-.2-2.2-.8-3.3-3.6-6-7.5-6s-8.6,4.7-8.6,11.1,2.8,10.6,8.5,10.6,6.7-2.3,7.6-6.2c.2-.7.2-1.4.2-2.2,0,0,0-5,0-5Z"/>
    <path class="st0" d="M306.3,121.4c0,3,0,5.6.2,7.8h-4.6l-.3-4.7h-.1c-1.4,2.3-4.4,5.3-9.5,5.3s-9.9-2.5-9.9-12.5v-16.7h5.2v15.9c0,5.4,1.7,9.1,6.4,9.1s5.9-2.4,6.9-4.7c.3-.8.5-1.7.5-2.7v-17.6h5.2v20.8h0Z"/>
    <path class="st0" d="M335.3,128.1c-1.4.7-4.4,1.7-8.2,1.7-8.6,0-14.3-5.9-14.3-14.6s6-15.2,15.4-15.2,5.8.8,7.2,1.5l-1.2,4c-1.2-.7-3.2-1.4-6-1.4-6.6,0-10.1,4.9-10.1,10.8s4.3,10.7,9.9,10.7,4.9-.8,6.4-1.4c0,0,.9,3.9.9,3.9Z"/>
    <path class="st0" d="M357.3,129.2l-.4-3.6h-.2c-1.6,2.2-4.7,4.3-8.8,4.3-5.8,0-8.8-4.1-8.8-8.2,0-6.9,6.2-10.7,17.2-10.7v-.6c0-2.4-.7-6.6-6.5-6.6s-5.4.8-7.5,2.1l-1.2-3.4c2.4-1.5,5.8-2.5,9.4-2.5,8.8,0,10.9,6,10.9,11.7v10.7c0,2.5.1,4.9.5,6.9h-4.7ZM356.5,114.6c-5.7-.1-12.1.9-12.1,6.5s2.2,5,4.9,5,6.1-2.4,6.9-4.8c.2-.5.3-1.1.3-1.7v-5Z"/>
    <path class="st0" d="M376,92.3v8.2h7.5v4h-7.5v15.4c0,3.6,1,5.6,3.9,5.6s2.4-.2,3-.4l.2,3.9c-1,.4-2.6.7-4.6.7s-4.4-.8-5.6-2.2c-1.5-1.5-2-4.1-2-7.5v-15.6h-4.4v-4h4.4v-6.9l5.1-1.4h0Z"/>
    <path class="st0" d="M395.1,92.5c0,1.8-1.2,3.2-3.3,3.2s-3.1-1.4-3.1-3.2,1.4-3.3,3.3-3.3,3.2,1.4,3.2,3.3ZM389.3,129.2v-28.6h5.2v28.6h-5.2Z"/>
    <path class="st0" d="M429.1,114.6c0,10.6-7.3,15.2-14.3,15.2s-13.7-5.7-13.7-14.7,6.3-15.2,14.2-15.2,13.8,6,13.8,14.7ZM406.3,114.9c0,6.3,3.6,11,8.7,11s8.7-4.7,8.7-11.1-2.4-11-8.6-11-8.8,5.7-8.8,11.1Z"/>
    <path class="st0" d="M435.6,108.3c0-3,0-5.4-.2-7.8h4.6l.3,4.7h.1c1.4-2.7,4.7-5.4,9.5-5.4s10.1,2.4,10.1,12.2v17.1h-5.2v-16.5c0-4.6-1.7-8.5-6.6-8.5s-6.1,2.4-7,5.3c-.2.7-.4,1.5-.4,2.4v17.2h-5.2v-20.9h0Z"/>
    <g>
      <path class="st0" d="M220.6,142.3h24c17.3,0,29.1,10.4,29.1,26.4s-11.8,26.4-29.1,26.4h-24v-52.8h0ZM244,185c10.5,0,17.3-6.3,17.3-16.4s-6.9-16.4-17.3-16.4h-11.2v32.7h11.2Z"/>
      <path class="st0" d="M323.8,185.3v9.8h-40.9v-52.8h39.9v9.8h-27.8v11.5h24.5v9.5h-24.5v12.2h28.7Z"/>
      <path class="st0" d="M381.6,195.1v-31.7c0,0-15.6,26.1-15.6,26.1h-5.5l-15.5-25.4v31h-11.5v-52.8h10.1l19.8,32.8,19.5-32.8h10l.2,52.8h-11.5Z"/>
      <path class="st0" d="M402.2,168.7c0-15.7,12.2-27.3,28.9-27.3s28.9,11.5,28.9,27.3-12.3,27.3-28.9,27.3-28.9-11.6-28.9-27.3ZM447.6,168.7c0-10-7.1-16.9-16.5-16.9s-16.5,6.9-16.5,16.9,7.1,16.9,16.5,16.9,16.5-6.9,16.5-16.9Z"/>
    </g>
  </g>
</svg>