<?xml version="1.0" encoding="UTF-8"?><svg id="Layer_2" xmlns="http://www.w3.org/2000/svg" viewBox="0 0 460.01 197.36"><defs><style>.cls-1{fill:#fff;}</style></defs><g id="Layer_1-2"><polygon class="cls-1" points="103.76 0 128.25 75.38 207.51 75.38 143.39 121.97 167.88 197.36 103.76 150.77 39.63 197.36 64.13 121.97 0 75.38 79.26 75.38 103.76 0"/><path class="cls-1" d="M237.83,109.26h-15.72v14.58h17.52v4.38h-22.74v-40.44h21.84v4.38h-16.62v12.78h15.72v4.32Z"/><path class="cls-1" d="M271.07,85.62v35.1c0,2.58.06,5.52.24,7.5h-4.74l-.24-5.04h-.12c-1.62,3.24-5.16,5.7-9.9,5.7-7.02,0-12.42-5.94-12.42-14.76-.06-9.66,5.94-15.6,13.02-15.6,4.44,0,7.44,2.1,8.76,4.44h.12v-17.34h5.28ZM265.79,111c0-.66-.06-1.56-.24-2.22-.78-3.36-3.66-6.12-7.62-6.12-5.46,0-8.7,4.8-8.7,11.22,0,5.88,2.88,10.74,8.58,10.74,3.54,0,6.78-2.34,7.74-6.3.18-.72.24-1.44.24-2.28v-5.04Z"/><path class="cls-1" d="M304.13,120.3c0,3,.06,5.64.24,7.92h-4.68l-.3-4.74h-.12c-1.38,2.34-4.44,5.4-9.6,5.4-4.56,0-10.02-2.52-10.02-12.72v-16.98h5.28v16.08c0,5.52,1.68,9.24,6.48,9.24,3.54,0,6-2.46,6.96-4.8.3-.78.48-1.74.48-2.7v-17.82h5.28v21.12Z"/><path class="cls-1" d="M333.59,127.14c-1.38.72-4.44,1.68-8.34,1.68-8.76,0-14.46-5.94-14.46-14.82s6.12-15.42,15.6-15.42c3.12,0,5.88.78,7.32,1.5l-1.2,4.08c-1.26-.72-3.24-1.38-6.12-1.38-6.66,0-10.26,4.92-10.26,10.98,0,6.72,4.32,10.86,10.08,10.86,3,0,4.98-.78,6.48-1.44l.9,3.96Z"/><path class="cls-1" d="M355.85,128.22l-.42-3.66h-.18c-1.62,2.28-4.74,4.32-8.88,4.32-5.88,0-8.88-4.14-8.88-8.34,0-7.02,6.24-10.86,17.46-10.8v-.6c0-2.4-.66-6.72-6.6-6.72-2.7,0-5.52.84-7.56,2.16l-1.2-3.48c2.4-1.56,5.88-2.58,9.54-2.58,8.88,0,11.04,6.06,11.04,11.88v10.86c0,2.52.12,4.98.48,6.96h-4.8ZM355.07,113.4c-5.76-.12-12.3.9-12.3,6.54,0,3.42,2.28,5.04,4.98,5.04,3.78,0,6.18-2.4,7.02-4.86.18-.54.3-1.14.3-1.68v-5.04Z"/><path class="cls-1" d="M374.81,90.84v8.34h7.56v4.02h-7.56v15.66c0,3.6,1.02,5.64,3.96,5.64,1.38,0,2.4-.18,3.06-.36l.24,3.96c-1.02.42-2.64.72-4.68.72-2.46,0-4.44-.78-5.7-2.22-1.5-1.56-2.04-4.14-2.04-7.56v-15.84h-4.5v-4.02h4.5v-6.96l5.16-1.38Z"/><path class="cls-1" d="M394.19,91.02c.06,1.8-1.26,3.24-3.36,3.24-1.86,0-3.18-1.44-3.18-3.24s1.38-3.3,3.3-3.3,3.24,1.44,3.24,3.3ZM388.31,128.22v-29.04h5.28v29.04h-5.28Z"/><path class="cls-1" d="M428.63,113.46c0,10.74-7.44,15.42-14.46,15.42-7.86,0-13.92-5.76-13.92-14.94,0-9.72,6.36-15.42,14.4-15.42s13.98,6.06,13.98,14.94ZM405.59,113.76c0,6.36,3.66,11.16,8.82,11.16s8.82-4.74,8.82-11.28c0-4.92-2.46-11.16-8.7-11.16s-8.94,5.76-8.94,11.28Z"/><path class="cls-1" d="M435.29,107.04c0-3-.06-5.46-.24-7.86h4.68l.3,4.8h.12c1.44-2.76,4.8-5.46,9.6-5.46,4.02,0,10.26,2.4,10.26,12.36v17.34h-5.28v-16.74c0-4.68-1.74-8.58-6.72-8.58-3.48,0-6.18,2.46-7.08,5.4-.24.66-.36,1.56-.36,2.46v17.46h-5.28v-21.18Z"/><path class="cls-1" d="M217.31,144.22h19.08c13.74,0,23.16,8.28,23.16,21s-9.42,21-23.16,21h-19.08v-42ZM235.91,178.24c8.34,0,13.8-4.98,13.8-13.02s-5.46-13.02-13.8-13.02h-8.88v26.04h8.88Z"/><path class="cls-1" d="M299.39,178.42v7.8h-32.52v-42h31.74v7.8h-22.08v9.12h19.5v7.56h-19.5v9.72h22.86Z"/><path class="cls-1" d="M345.35,186.22l-.06-25.2-12.36,20.76h-4.38l-12.3-20.22v24.66h-9.12v-42h8.04l15.72,26.1,15.48-26.1h7.98l.12,42h-9.12Z"/><path class="cls-1" d="M361.79,165.22c0-12.48,9.72-21.72,22.98-21.72s22.98,9.18,22.98,21.72-9.78,21.72-22.98,21.72-22.98-9.24-22.98-21.72ZM397.91,165.22c0-7.98-5.64-13.44-13.14-13.44s-13.14,5.46-13.14,13.44,5.64,13.44,13.14,13.44,13.14-5.46,13.14-13.44Z"/></g></svg>